<?xml version="1.0" encoding="iso-8859-1"?>
<!-- Generator: Adobe Illustrator 25.2.0, SVG Export Plug-In . SVG Version: 6.00 Build 0)  -->
<svg version="1.1" id="Layer_1" xmlns="http://www.w3.org/2000/svg" xmlns:xlink="http://www.w3.org/1999/xlink" x="0px" y="0px"
	 viewBox="0 0 1000 1000" style="enable-background:new 0 0 1000 1000;" xml:space="preserve">
<g id="watermark_1_">
	<g>
		<g id="watermark" style="opacity:0.61;">
			<g>
				<g>
					<g>
						<g>
							<polygon style="fill:#606060;" points="421.112,924.528 409.007,952.493 402.615,952.493 390.55,924.528 397.541,924.528 
								406.051,944.503 414.68,924.528 							"/>
						</g>
						<g>
							<path style="fill:#606060;" d="M442.323,943.185h-16.26c0.599,2.677,2.876,4.315,6.153,4.315
								c2.277,0,3.915-0.679,5.393-2.077l3.316,3.595c-1.997,2.278-4.994,3.476-8.868,3.476c-7.431,0-12.265-4.674-12.265-11.067
								c0-6.432,4.914-11.066,11.466-11.066c6.312,0,11.186,4.235,11.186,11.146C442.443,941.987,442.363,942.666,442.323,943.185
								 M425.983,939.55h10.587c-0.44-2.717-2.478-4.475-5.274-4.475C428.46,935.075,426.422,936.793,425.983,939.55"/>
						</g>
						<g>
							<path style="fill:#606060;" d="M444.997,941.427c0-6.471,4.994-11.066,11.985-11.066c4.514,0,8.07,1.958,9.628,5.473
								l-4.834,2.597c-1.159-2.038-2.877-2.956-4.834-2.956c-3.156,0-5.633,2.198-5.633,5.952c0,3.756,2.477,5.953,5.633,5.953
								c1.958,0,3.675-0.879,4.834-2.956l4.834,2.637c-1.558,3.436-5.114,5.433-9.628,5.433
								C449.991,952.493,444.997,947.899,444.997,941.427"/>
						</g>
						<g>
							<path style="fill:#606060;" d="M484.386,951.135c-1.279,0.919-3.157,1.358-5.074,1.358c-5.073,0-8.03-2.597-8.03-7.711
								v-8.829h-3.316v-4.794h3.316v-5.233h6.232v5.233h5.353v4.794h-5.353v8.749c0,1.837,0.998,2.836,2.677,2.836
								c0.918,0,1.837-0.279,2.517-0.799L484.386,951.135z"/>
						</g>
					</g>
					<g>
						<path style="fill:#606060;" d="M527.157,930.68v5.753c-0.519-0.04-0.918-0.08-1.398-0.08c-3.435,0-5.713,1.877-5.713,5.993
							v10.147h-6.232V931h5.953v2.836C521.284,931.759,523.841,930.68,527.157,930.68"/>
					</g>
					<g>
						<path style="fill:#606060;" d="M528.954,949.257l2.197-4.874c2.357,1.718,5.873,2.916,9.229,2.916
							c3.836,0,5.393-1.278,5.393-2.996c0-5.233-16.26-1.638-16.26-12.025c0-4.754,3.835-8.709,11.785-8.709
							c3.516,0,7.112,0.839,9.708,2.477l-1.998,4.914c-2.597-1.478-5.273-2.197-7.75-2.197c-3.835,0-5.313,1.438-5.313,3.196
							c0,5.154,16.259,1.598,16.259,11.865c0,4.675-3.875,8.67-11.865,8.67C535.905,952.493,531.43,951.175,528.954,949.257"/>
					</g>
					<g>
						<path style="fill:#606060;" d="M577.131,943.185h-16.26c0.599,2.677,2.876,4.315,6.153,4.315c2.277,0,3.915-0.679,5.393-2.077
							l3.316,3.595c-1.998,2.278-4.994,3.476-8.869,3.476c-7.431,0-12.265-4.674-12.265-11.067c0-6.432,4.914-11.066,11.466-11.066
							c6.312,0,11.187,4.235,11.187,11.146C577.251,941.987,577.171,942.666,577.131,943.185 M560.791,939.55h10.587
							c-0.439-2.717-2.477-4.475-5.273-4.475C563.268,935.075,561.231,936.793,560.791,939.55"/>
					</g>
					<g>
						<path style="fill:#606060;" d="M602.337,943.185h-16.26c0.599,2.677,2.876,4.315,6.152,4.315c2.277,0,3.915-0.679,5.393-2.077
							l3.316,3.595c-1.998,2.278-4.994,3.476-8.869,3.476c-7.431,0-12.265-4.674-12.265-11.067c0-6.432,4.914-11.066,11.466-11.066
							c6.312,0,11.186,4.235,11.186,11.146C602.457,941.987,602.377,942.666,602.337,943.185 M585.997,939.55h10.587
							c-0.439-2.717-2.477-4.475-5.273-4.475C588.474,935.075,586.437,936.793,585.997,939.55"/>
					</g>
					<g>
						<polygon style="fill:#606060;" points="615.838,944.064 612.841,947.02 612.841,952.493 606.61,952.493 606.61,922.85 
							612.841,922.85 612.841,939.629 621.95,931 629.381,931 620.432,940.108 630.18,952.493 622.63,952.493 						"/>
					</g>
					<g>
						<path style="fill:#606060;" d="M514.371,955.416L514.371,955.416l-6.226-6.226c-0.947,1.107-2.075,2.054-3.339,2.796
							c-0.201,0.15-0.406,0.296-0.616,0.433l6.589,6.589c0.992,0.992,2.601,0.992,3.592,0
							C515.363,958.017,515.363,956.408,514.371,955.416"/>
					</g>
					<g>
						<path style="fill:#F84D10;" d="M499.965,929.04c0.48-0.377,1.077-0.612,1.735-0.612c0.091,0,0.181,0.005,0.27,0.013
							c-0.466-0.34-1.041-0.542-1.663-0.542c-0.859,0-1.619,0.392-2.137,0.998c-0.111,0-0.218,0.013-0.328,0.016
							c0.086-0.167,0.139-0.354,0.139-0.555c0-0.509-0.311-0.945-0.752-1.13c0.19,0.275,0.301,0.608,0.301,0.968
							c0,0.267-0.066,0.517-0.176,0.742c-6.119,0.437-10.95,5.527-10.95,11.757c0,6.516,5.283,11.799,11.799,11.799
							c6.517,0,11.8-5.283,11.8-11.799C510.004,934.777,505.644,929.892,499.965,929.04 M495.61,932.114
							c0.947,0,1.837,0.244,2.611,0.674c0.813-0.532,1.785-0.842,2.828-0.842c1.547,0,2.934,0.68,3.883,1.756
							c-0.948-0.826-2.186-1.328-3.541-1.328c-0.977,0-1.895,0.261-2.686,0.716c-0.172,0.1-0.34,0.208-0.499,0.326
							c-0.142-0.104-0.29-0.203-0.444-0.292c-0.803-0.476-1.741-0.749-2.743-0.749c-0.653,0-1.279,0.117-1.86,0.331
							C493.895,932.328,494.727,932.114,495.61,932.114 M503.858,941.785c0.25,0.664,0.394,1.38,0.394,2.131
							c0,3.34-2.707,6.047-6.047,6.047c-3.339,0-6.047-2.707-6.047-6.047c0-0.751,0.143-1.467,0.394-2.131
							c-1.35-0.831-2.253-2.317-2.253-4.019c0-2.607,2.114-4.72,4.72-4.72c1.23,0,2.346,0.474,3.186,1.244
							c0.84-0.77,1.956-1.244,3.186-1.244c2.607,0,4.72,2.113,4.72,4.72C506.111,939.467,505.208,940.954,503.858,941.785"/>
					</g>
					<g>
						<path style="fill:#444444;" d="M503.627,937.351c0,1.082-0.879,1.961-1.961,1.961c-1.082,0-1.961-0.879-1.961-1.961
							s0.879-1.961,1.961-1.961c0.22,0,0.428,0.037,0.625,0.102c-0.065,0.135-0.099,0.287-0.099,0.445
							c0,0.595,0.482,1.076,1.077,1.076c0.11,0,0.217-0.017,0.318-0.048C503.613,937.089,503.627,937.218,503.627,937.351"/>
					</g>
					<g>
						<path style="fill:#444444;" d="M496.201,937.351c0,0.818-0.665,1.482-1.483,1.482c-0.818,0-1.483-0.664-1.483-1.482
							s0.665-1.483,1.483-1.483c0.166,0,0.324,0.027,0.473,0.077c-0.049,0.102-0.075,0.217-0.075,0.337
							c0,0.449,0.364,0.814,0.814,0.814c0.083,0,0.164-0.013,0.241-0.036C496.191,937.153,496.201,937.251,496.201,937.351"/>
					</g>
					<g>
						<g>
							<g>
								<rect x="484.56" y="939.024" style="fill:#606060;" width="1.34" height="1.34"/>
							</g>
							<g>
								<rect x="510.51" y="939.024" style="fill:#606060;" width="1.34" height="1.34"/>
							</g>
							<g>
								<path style="fill:#606060;" d="M511.332,939.572h-0.304c0-7.07-5.752-12.823-12.823-12.823
									c-7.07,0-12.823,5.753-12.823,12.823h-0.305c0-3.506,1.365-6.803,3.845-9.282c2.479-2.48,5.776-3.845,9.282-3.845
									c3.507,0,6.803,1.365,9.283,3.845C509.966,932.769,511.332,936.065,511.332,939.572"/>
							</g>
						</g>
						<g>
							<rect x="497.534" y="925.927" style="fill:#606060;" width="1.34" height="1.34"/>
						</g>
						<g>
							<rect x="489.006" y="926.445" style="fill:#606060;" width="18.397" height="0.304"/>
						</g>
						<g>
							<path style="fill:#606060;" d="M489.494,926.658c0,0.235-0.191,0.427-0.427,0.427c-0.235,0-0.426-0.191-0.426-0.427
								s0.191-0.427,0.426-0.427C489.303,926.231,489.494,926.422,489.494,926.658"/>
						</g>
						<g>
							<path style="fill:#606060;" d="M507.829,926.658c0,0.235-0.191,0.427-0.427,0.427c-0.235,0-0.426-0.191-0.426-0.427
								s0.191-0.427,0.426-0.427C507.639,926.231,507.829,926.422,507.829,926.658"/>
						</g>
					</g>
				</g>
				<g>
					<path style="fill:#606060;" d="M640.109,951.171c0,3.395-5.146,3.395-5.146,0C634.963,947.779,640.109,947.779,640.109,951.171
						z"/>
				</g>
				<g>
					<g>
						<g>
							<path style="fill:#606060;" d="M307.849,936.236l3.859,13.253l4.038-13.253h4.823l-6.145,17.721h-5.073l-1.822-5.216
								l-1.572-5.896l-1.571,5.896l-1.822,5.216h-5.073l-6.18-17.721h4.858l4.038,13.253l3.822-13.253H307.849z"/>
						</g>
						<g>
							<path style="fill:#606060;" d="M340.449,936.236l3.859,13.253l4.038-13.253h4.823l-6.145,17.721h-5.073l-1.822-5.216
								l-1.571-5.896l-1.572,5.896l-1.822,5.216h-5.073l-6.18-17.721h4.858l4.038,13.253l3.822-13.253H340.449z"/>
						</g>
						<g>
							<path style="fill:#606060;" d="M373.048,936.236l3.859,13.253l4.038-13.253h4.823l-6.145,17.721h-5.073l-1.822-5.216
								l-1.572-5.896l-1.571,5.896l-1.822,5.216h-5.073l-6.18-17.721h4.858l4.038,13.253l3.822-13.253H373.048z"/>
						</g>
					</g>
					<g>
						<path style="fill:#606060;" d="M393.123,951.412c0,3.395-5.146,3.395-5.146,0C387.977,948.02,393.123,948.02,393.123,951.412z
							"/>
					</g>
					<g>
						<path style="fill:#606060;" d="M658.296,951.171c-2.036,2.001-4.177,2.787-6.787,2.787c-5.108,0-9.361-3.072-9.361-9.323
							c0-6.251,4.253-9.326,9.361-9.326c2.502,0,4.43,0.716,6.359,2.609l-2.752,2.894c-1.036-0.931-2.321-1.393-3.534-1.393
							c-2.929,0-5.073,2.144-5.073,5.216c0,3.357,2.286,5.143,5,5.143c1.393,0,2.787-0.393,3.857-1.463L658.296,951.171z"/>
					</g>
					<g>
						<path style="fill:#606060;" d="M678.097,944.777c0,5.073-3.465,9.181-9.181,9.181c-5.716,0-9.146-4.107-9.146-9.181
							c0-5.038,3.502-9.181,9.111-9.181S678.097,939.739,678.097,944.777z M664.128,944.777c0,2.679,1.609,5.181,4.788,5.181
							c3.179,0,4.788-2.502,4.788-5.181c0-2.644-1.859-5.216-4.788-5.216C665.772,939.561,664.128,942.133,664.128,944.777z"/>
					</g>
					<g>
						<path style="fill:#606060;" d="M692.828,953.958v-9.431c0-2.324-1.216-4.43-3.61-4.43c-2.356,0-3.75,2.106-3.75,4.43v9.431
							h-4.36v-17.649h4.038l0.323,2.144c0.928-1.786,2.964-2.429,4.643-2.429c2.109,0,4.218,0.858,5.216,3.287
							c1.574-2.502,3.61-3.217,5.896-3.217c5,0,7.467,3.075,7.467,8.36v9.504h-4.361v-9.504c0-2.321-0.963-4.288-3.322-4.288
							c-2.356,0-3.822,2.036-3.822,4.36v9.431H692.828z"/>
					</g>
				</g>
			</g>
		</g>
		<g style="opacity:0.61;">
			<g>
				<g>
					<path style="fill:#606060;" d="M708.973,859.493c-0.013-2.665-2.087-4.618-4.766-4.659c-2.011-0.031-1.81,0.261-1.815-1.887
						c-0.006-2.389-0.015-4.778,0.006-7.166c0.007-0.824-0.243-1.505-0.787-2.125c-5.098-5.81-10.184-11.63-15.281-17.441
						c-0.262-0.299-0.599-0.532-0.901-0.796c-13.528,0-27.055,0-40.583,0c-1.729,0.639-2.482,1.889-2.478,3.72
						c0.021,8.159,0.009,16.318,0.008,24.478c0,1.21-0.007,1.281-1.197,1.201c-3.258-0.221-5.477,2.147-5.436,5.426
						c0.096,7.568,0.028,15.137,0.031,22.706c0.001,3.44,1.887,5.32,5.333,5.331c1.267,0.004,1.268,0.004,1.268,1.306
						c0.001,4.831-0.002,9.662,0.002,14.493c0.002,2.595,1.262,3.855,3.85,3.855c17.446,0.001,34.891,0.001,52.337,0
						c2.543,0,3.822-1.268,3.824-3.799c0.005-4.912,0.001-9.823,0.003-14.735c0-1.115,0.005-1.112,1.131-1.121
						c0.589-0.005,1.177,0.017,1.761-0.127c2.169-0.535,3.68-2.273,3.689-4.503C709.007,875.597,709.011,867.545,708.973,859.493z
						 M647.034,828.716c11.619-0.001,23.237-0.001,34.856,0c1.193,0,1.206,0.015,1.207,1.222c0.001,4.884-0.002,9.767,0.002,14.651
						c0.001,1.765,0.543,2.305,2.307,2.306c4.159,0.003,8.318,0,12.477,0.003c0.997,0.001,1.044,0.046,1.046,1.052
						c0.006,1.932,0.005,3.864,0,5.796c-0.003,1.038-0.051,1.085-1.098,1.085c-8.479,0.002-16.958,0.001-25.438,0.001
						c-8.452,0-16.905,0-25.357,0c-1.198,0-1.202-0.003-1.202-1.221c-0.001-7.889-0.001-15.778,0-23.667
						C645.835,828.724,645.844,828.716,647.034,828.716z M697.728,903.645c-8.454,0.001-16.908,0.001-25.362,0.001
						c-8.427,0-16.854,0.001-25.281,0c-1.245,0-1.249-0.003-1.249-1.262c-0.001-4.348-0.003-8.696,0.001-13.043
						c0.001-1.01,0.051-1.059,1.041-1.059c16.989-0.002,33.977-0.002,50.966,0c1.041,0,1.086,0.044,1.087,1.094
						c0.003,4.348,0.003,8.696,0.001,13.043C698.931,903.634,698.92,903.645,697.728,903.645z"/>
				</g>
				<g>
					<g>
						<rect x="668.546" y="828.478" style="fill:#606060;" width="3.825" height="2.295"/>
					</g>
					<g>
						<rect x="664.722" y="830.773" style="fill:#606060;" width="3.825" height="2.295"/>
					</g>
					<g>
						<rect x="668.546" y="833.068" style="fill:#606060;" width="3.825" height="2.295"/>
					</g>
					<g>
						<rect x="664.722" y="835.363" style="fill:#606060;" width="3.825" height="2.295"/>
					</g>
					<g>
						<rect x="668.546" y="837.658" style="fill:#606060;" width="3.825" height="2.295"/>
					</g>
					<g>
						<rect x="664.722" y="839.953" style="fill:#606060;" width="3.825" height="2.295"/>
					</g>
					<g>
						<rect x="668.546" y="842.247" style="fill:#606060;" width="3.825" height="2.295"/>
					</g>
					<g>
						<rect x="664.722" y="844.542" style="fill:#606060;" width="3.825" height="2.295"/>
					</g>
					<g>
						<rect x="668.546" y="846.837" style="fill:#606060;" width="3.825" height="2.295"/>
					</g>
					<g>
						<rect x="664.722" y="849.132" style="fill:#606060;" width="3.825" height="2.295"/>
					</g>
					<g>
						<rect x="668.546" y="851.427" style="fill:#606060;" width="3.825" height="2.295"/>
					</g>
					<g>
						<rect x="664.722" y="853.722" style="fill:#606060;" width="3.825" height="2.295"/>
					</g>
				</g>
			</g>
			<g>
				<path style="fill:#606060;" d="M364.231,859.493c-0.013-2.665-2.087-4.618-4.766-4.659c-2.011-0.031-1.81,0.261-1.815-1.887
					c-0.006-2.389-0.015-4.778,0.006-7.166c0.007-0.824-0.243-1.505-0.787-2.125c-5.098-5.81-10.184-11.63-15.281-17.441
					c-0.262-0.299-0.599-0.532-0.901-0.796c-13.528,0-27.055,0-40.583,0c-1.729,0.639-2.482,1.889-2.478,3.72
					c0.021,8.159,0.009,16.318,0.008,24.478c0,1.21-0.007,1.281-1.197,1.201c-3.258-0.221-5.477,2.147-5.436,5.426
					c0.096,7.568,0.028,15.137,0.031,22.706c0.001,3.44,1.887,5.32,5.333,5.331c1.267,0.004,1.268,0.004,1.268,1.306
					c0.001,4.831-0.002,9.662,0.002,14.493c0.002,2.595,1.262,3.855,3.85,3.855c17.446,0.001,34.891,0.001,52.337,0
					c2.543,0,3.822-1.268,3.824-3.799c0.005-4.912,0.001-9.823,0.003-14.735c0-1.115,0.004-1.112,1.131-1.121
					c0.589-0.005,1.177,0.017,1.761-0.127c2.169-0.535,3.68-2.273,3.689-4.503C364.264,875.597,364.269,867.545,364.231,859.493z
					 M302.292,828.716c11.619-0.001,23.237-0.001,34.856,0c1.192,0,1.206,0.015,1.207,1.222c0.001,4.884-0.001,9.767,0.002,14.651
					c0.001,1.765,0.543,2.305,2.307,2.306c4.159,0.003,8.318,0,12.477,0.003c0.997,0.001,1.044,0.046,1.046,1.052
					c0.006,1.932,0.005,3.864,0,5.796c-0.003,1.038-0.051,1.085-1.098,1.085c-8.479,0.002-16.958,0.001-25.438,0.001
					c-8.452,0-16.905,0-25.357,0c-1.198,0-1.202-0.003-1.202-1.221c-0.001-7.889-0.001-15.778,0-23.667
					C301.093,828.724,301.102,828.716,302.292,828.716z M352.985,903.645c-8.454,0.001-16.908,0.001-25.362,0.001
					c-8.427,0-16.854,0.001-25.281,0c-1.245,0-1.249-0.003-1.249-1.262c-0.001-4.348-0.003-8.696,0.001-13.043
					c0.001-1.01,0.051-1.059,1.041-1.059c16.989-0.002,33.977-0.002,50.966,0c1.041,0,1.086,0.044,1.087,1.094
					c0.003,4.348,0.003,8.696,0.001,13.043C354.188,903.634,354.177,903.645,352.985,903.645z"/>
			</g>
			<g>
				<path style="fill:#FFFFFF;" d="M303.581,879.891v-17.193h6.051c0.816,0,1.581,0.132,2.293,0.396
					c0.712,0.264,1.333,0.636,1.861,1.117c0.527,0.48,0.944,1.053,1.248,1.717c0.304,0.665,0.456,1.397,0.456,2.198
					c0,0.816-0.152,1.557-0.456,2.221s-0.721,1.236-1.248,1.717c-0.529,0.48-1.149,0.852-1.861,1.117
					c-0.713,0.264-1.477,0.396-2.293,0.396h-2.809v6.315H303.581z M309.68,870.503c0.848,0,1.489-0.241,1.921-0.721
					c0.432-0.48,0.648-1.032,0.648-1.656c0-0.304-0.052-0.601-0.156-0.889c-0.105-0.288-0.264-0.54-0.48-0.756
					c-0.216-0.217-0.484-0.388-0.805-0.516c-0.32-0.129-0.696-0.193-1.128-0.193h-2.857v4.731H309.68z"/>
				<path style="fill:#FFFFFF;" d="M317.796,862.699h3.77l6.916,11.526h0.191l-0.191-3.314v-8.212h3.217v17.193h-3.409l-7.3-12.174
					h-0.191l0.191,3.314v8.86h-3.193V862.699z"/>
				<path style="fill:#FFFFFF;" d="M343.08,870.454h8.429c0.048,0.193,0.087,0.425,0.12,0.697c0.031,0.272,0.048,0.544,0.048,0.816
					c0,1.104-0.167,2.145-0.504,3.121c-0.336,0.977-0.865,1.849-1.585,2.618c-0.768,0.817-1.69,1.449-2.761,1.897
					c-1.073,0.448-2.298,0.672-3.674,0.672c-1.249,0-2.426-0.224-3.53-0.672c-1.104-0.447-2.065-1.072-2.881-1.873
					c-0.816-0.8-1.465-1.749-1.945-2.845c-0.48-1.097-0.72-2.293-0.72-3.59c0-1.296,0.24-2.493,0.72-3.589s1.129-2.045,1.945-2.845
					c0.816-0.8,1.777-1.425,2.881-1.873c1.104-0.448,2.281-0.672,3.53-0.672c1.392,0,2.637,0.24,3.734,0.72
					c1.097,0.48,2.036,1.144,2.821,1.993l-2.232,2.185c-0.562-0.592-1.185-1.044-1.874-1.357s-1.513-0.468-2.473-0.468
					c-0.786,0-1.53,0.14-2.234,0.421c-0.705,0.28-1.321,0.676-1.85,1.188c-0.527,0.512-0.949,1.133-1.259,1.861
					c-0.312,0.728-0.469,1.541-0.469,2.437c0,0.897,0.157,1.709,0.469,2.438c0.311,0.728,0.735,1.349,1.271,1.861
					c0.536,0.512,1.156,0.909,1.862,1.188c0.704,0.281,1.457,0.421,2.258,0.421c0.911,0,1.684-0.132,2.317-0.396
					c0.632-0.264,1.171-0.604,1.62-1.021c0.321-0.288,0.598-0.652,0.829-1.092s0.412-0.932,0.541-1.477h-5.404V870.454z"/>
			</g>
			<g>
				<path style="fill:#606060;" d="M443.437,859.493c-0.013-2.665-2.087-4.618-4.766-4.659c-2.011-0.031-1.81,0.261-1.815-1.887
					c-0.006-2.389-0.015-4.778,0.006-7.166c0.007-0.824-0.243-1.505-0.787-2.125c-5.098-5.81-10.184-11.63-15.281-17.441
					c-0.262-0.299-0.599-0.532-0.901-0.796c-13.528,0-27.055,0-40.583,0c-1.729,0.639-2.482,1.889-2.478,3.72
					c0.021,8.159,0.009,16.318,0.008,24.478c0,1.21-0.007,1.281-1.197,1.201c-3.258-0.221-5.477,2.147-5.436,5.426
					c0.096,7.568,0.028,15.137,0.031,22.706c0.001,3.44,1.887,5.32,5.333,5.331c1.267,0.004,1.268,0.004,1.268,1.306
					c0.001,4.831-0.002,9.662,0.002,14.493c0.002,2.595,1.262,3.855,3.85,3.855c17.446,0.001,34.891,0.001,52.337,0
					c2.543,0,3.822-1.268,3.824-3.799c0.005-4.912,0.001-9.823,0.003-14.735c0-1.115,0.004-1.112,1.131-1.121
					c0.589-0.005,1.177,0.017,1.761-0.127c2.169-0.535,3.68-2.273,3.689-4.503C443.47,875.597,443.475,867.545,443.437,859.493z
					 M381.498,828.716c11.619-0.001,23.237-0.001,34.856,0c1.192,0,1.206,0.015,1.207,1.222c0.001,4.884-0.001,9.767,0.002,14.651
					c0.001,1.765,0.543,2.305,2.307,2.306c4.159,0.003,8.318,0,12.477,0.003c0.997,0.001,1.044,0.046,1.046,1.052
					c0.006,1.932,0.005,3.864,0,5.796c-0.003,1.038-0.051,1.085-1.098,1.085c-8.479,0.002-16.958,0.001-25.438,0.001
					c-8.452,0-16.905,0-25.357,0c-1.198,0-1.202-0.003-1.202-1.221c-0.001-7.889-0.001-15.778,0-23.667
					C380.299,828.724,380.308,828.716,381.498,828.716z M432.192,903.645c-8.454,0.001-16.908,0.001-25.362,0.001
					c-8.427,0-16.854,0.001-25.281,0c-1.245,0-1.249-0.003-1.249-1.262c-0.001-4.348-0.002-8.696,0.001-13.043
					c0.001-1.01,0.051-1.059,1.041-1.059c16.989-0.002,33.977-0.002,50.966,0c1.041,0,1.086,0.044,1.087,1.094
					c0.003,4.348,0.003,8.696,0.001,13.043C433.394,903.634,433.384,903.645,432.192,903.645z"/>
			</g>
			<g>
				<path style="fill:#FFFFFF;" d="M402.272,862.699h3.698l6.46,17.193h-3.578l-1.416-4.106h-6.628l-1.417,4.106h-3.578
					L402.272,862.699z M406.379,872.808l-1.537-4.298l-0.625-2.089h-0.192l-0.625,2.089l-1.537,4.298H406.379z"/>
				<path style="fill:#FFFFFF;" d="M415.815,866.541c-0.273,0-0.533-0.052-0.781-0.156c-0.248-0.104-0.465-0.248-0.648-0.432
					c-0.184-0.184-0.328-0.396-0.432-0.636c-0.105-0.241-0.156-0.504-0.156-0.793s0.052-0.552,0.156-0.793
					c0.104-0.24,0.248-0.452,0.432-0.636c0.184-0.184,0.4-0.328,0.648-0.432c0.248-0.104,0.508-0.156,0.781-0.156
					c0.56,0,1.041,0.196,1.441,0.588c0.4,0.393,0.601,0.869,0.601,1.429c0,0.56-0.201,1.037-0.601,1.428
					C416.856,866.345,416.375,866.541,415.815,866.541z M414.255,879.891v-11.766h3.145v11.766H414.255z"/>
			</g>
			<g>
				<path style="fill:#606060;" d="M524.043,859.493c-0.013-2.665-2.087-4.618-4.766-4.659c-2.011-0.031-1.81,0.261-1.815-1.887
					c-0.006-2.389-0.015-4.778,0.006-7.166c0.007-0.824-0.243-1.505-0.787-2.125c-5.098-5.81-10.184-11.63-15.281-17.441
					c-0.262-0.299-0.599-0.532-0.901-0.796c-13.528,0-27.055,0-40.583,0c-1.729,0.639-2.482,1.889-2.478,3.72
					c0.021,8.159,0.009,16.318,0.008,24.478c0,1.21-0.007,1.281-1.197,1.201c-3.258-0.221-5.477,2.147-5.436,5.426
					c0.096,7.568,0.028,15.137,0.031,22.706c0.001,3.44,1.887,5.32,5.333,5.331c1.267,0.004,1.268,0.004,1.268,1.306
					c0.001,4.831-0.002,9.662,0.002,14.493c0.002,2.595,1.262,3.855,3.85,3.855c17.446,0.001,34.891,0.001,52.337,0
					c2.543,0,3.822-1.268,3.824-3.799c0.005-4.912,0.001-9.823,0.003-14.735c0-1.115,0.004-1.112,1.131-1.121
					c0.589-0.005,1.177,0.017,1.761-0.127c2.169-0.535,3.68-2.273,3.689-4.503C524.076,875.597,524.081,867.545,524.043,859.493z
					 M462.104,828.716c11.619-0.001,23.237-0.001,34.856,0c1.192,0,1.206,0.015,1.207,1.222c0.001,4.884-0.001,9.767,0.002,14.651
					c0.001,1.765,0.543,2.305,2.307,2.306c4.159,0.003,8.318,0,12.477,0.003c0.997,0.001,1.044,0.046,1.046,1.052
					c0.006,1.932,0.005,3.864,0,5.796c-0.003,1.038-0.051,1.085-1.098,1.085c-8.479,0.002-16.958,0.001-25.438,0.001
					c-8.452,0-16.905,0-25.357,0c-1.198,0-1.202-0.003-1.202-1.221c-0.001-7.889-0.001-15.778,0-23.667
					C460.905,828.724,460.914,828.716,462.104,828.716z M512.798,903.645c-8.454,0.001-16.908,0.001-25.362,0.001
					c-8.427,0-16.854,0.001-25.281,0c-1.245,0-1.249-0.003-1.249-1.262c-0.001-4.348-0.002-8.696,0.001-13.043
					c0.001-1.01,0.051-1.059,1.041-1.059c16.989-0.002,33.977-0.002,50.966,0c1.041,0,1.086,0.044,1.087,1.094
					c0.003,4.348,0.003,8.696,0.001,13.043C514,903.634,513.989,903.645,512.798,903.645z"/>
			</g>
			<g>
				<path style="fill:#FFFFFF;" d="M470.308,880.275c-0.737,0-1.441-0.104-2.113-0.312c-0.672-0.208-1.289-0.52-1.849-0.936
					c-0.56-0.416-1.048-0.925-1.464-1.525c-0.417-0.601-0.745-1.301-0.985-2.101l3.049-1.2c0.224,0.864,0.616,1.581,1.177,2.149
					s1.297,0.852,2.209,0.852c0.336,0,0.66-0.044,0.973-0.132c0.312-0.087,0.592-0.216,0.84-0.384
					c0.248-0.168,0.444-0.38,0.589-0.636c0.144-0.256,0.216-0.552,0.216-0.888c0-0.32-0.056-0.608-0.168-0.865
					c-0.112-0.255-0.3-0.495-0.564-0.72c-0.264-0.224-0.609-0.44-1.033-0.648c-0.424-0.208-0.948-0.424-1.572-0.648l-1.056-0.384
					c-0.465-0.16-0.933-0.376-1.405-0.648c-0.472-0.272-0.9-0.6-1.284-0.985c-0.385-0.384-0.701-0.836-0.949-1.357
					c-0.249-0.52-0.372-1.108-0.372-1.765c0-0.672,0.132-1.301,0.396-1.885c0.264-0.584,0.64-1.096,1.129-1.537
					c0.488-0.44,1.072-0.784,1.753-1.032c0.681-0.248,1.437-0.372,2.269-0.372c0.864,0,1.612,0.116,2.245,0.348
					c0.633,0.232,1.168,0.528,1.609,0.888c0.44,0.36,0.796,0.757,1.068,1.188c0.272,0.433,0.472,0.84,0.601,1.225l-2.857,1.2
					c-0.161-0.48-0.453-0.913-0.876-1.297c-0.425-0.384-1.005-0.576-1.741-0.576c-0.704,0-1.289,0.164-1.753,0.492
					c-0.465,0.329-0.697,0.757-0.697,1.285c0,0.512,0.224,0.949,0.672,1.309c0.448,0.36,1.161,0.708,2.137,1.044l1.081,0.36
					c0.688,0.241,1.316,0.517,1.885,0.828c0.568,0.312,1.056,0.684,1.465,1.117c0.408,0.433,0.72,0.925,0.936,1.477
					c0.217,0.552,0.324,1.189,0.324,1.909c0,0.897-0.18,1.669-0.54,2.317c-0.36,0.648-0.82,1.181-1.38,1.597
					c-0.561,0.416-1.193,0.728-1.897,0.936C471.668,880.172,470.98,880.275,470.308,880.275z"/>
				<path style="fill:#FFFFFF;" d="M477.175,862.699h3.506l3.554,10.349l0.625,2.209h0.192l0.672-2.209l3.698-10.349h3.506
					l-6.268,17.193h-3.409L477.175,862.699z"/>
				<path style="fill:#FFFFFF;" d="M502.388,870.454h8.428c0.048,0.193,0.088,0.425,0.12,0.697c0.033,0.272,0.049,0.544,0.049,0.816
					c0,1.104-0.169,2.145-0.505,3.121c-0.336,0.977-0.864,1.849-1.585,2.618c-0.768,0.817-1.688,1.449-2.761,1.897
					c-1.073,0.448-2.298,0.672-3.674,0.672c-1.249,0-2.425-0.224-3.529-0.672c-1.105-0.447-2.066-1.072-2.882-1.873
					c-0.816-0.8-1.465-1.749-1.945-2.845c-0.48-1.097-0.72-2.293-0.72-3.59c0-1.296,0.241-2.493,0.72-3.589
					c0.48-1.097,1.129-2.045,1.945-2.845c0.816-0.8,1.777-1.425,2.882-1.873c1.104-0.448,2.28-0.672,3.529-0.672
					c1.392,0,2.637,0.24,3.734,0.72c1.097,0.48,2.038,1.144,2.822,1.993l-2.234,2.185c-0.56-0.592-1.185-1.044-1.874-1.357
					c-0.687-0.312-1.512-0.468-2.473-0.468c-0.784,0-1.528,0.14-2.234,0.421c-0.704,0.28-1.321,0.676-1.848,1.188
					c-0.528,0.512-0.949,1.133-1.261,1.861c-0.312,0.728-0.468,1.541-0.468,2.437c0,0.897,0.156,1.709,0.468,2.438
					c0.312,0.728,0.737,1.349,1.273,1.861c0.536,0.512,1.156,0.909,1.86,1.188c0.705,0.281,1.457,0.421,2.258,0.421
					c0.913,0,1.685-0.132,2.317-0.396c0.632-0.264,1.173-0.604,1.621-1.021c0.32-0.288,0.596-0.652,0.828-1.092
					c0.233-0.44,0.412-0.932,0.541-1.477h-5.402V870.454z"/>
			</g>
			<g>
				<path style="fill:#606060;" d="M602.976,859.493c-0.013-2.665-2.087-4.618-4.766-4.659c-2.011-0.031-1.81,0.261-1.815-1.887
					c-0.006-2.389-0.015-4.778,0.006-7.166c0.007-0.824-0.243-1.505-0.787-2.125c-5.098-5.81-10.184-11.63-15.281-17.441
					c-0.262-0.299-0.599-0.532-0.901-0.796c-13.528,0-27.055,0-40.583,0c-1.729,0.639-2.482,1.889-2.478,3.72
					c0.021,8.159,0.009,16.318,0.008,24.478c0,1.21-0.007,1.281-1.197,1.201c-3.258-0.221-5.477,2.147-5.436,5.426
					c0.096,7.568,0.028,15.137,0.031,22.706c0.001,3.44,1.887,5.32,5.333,5.331c1.267,0.004,1.268,0.004,1.268,1.306
					c0.001,4.831-0.002,9.662,0.002,14.493c0.002,2.595,1.262,3.855,3.85,3.855c17.446,0.001,34.891,0.001,52.337,0
					c2.543,0,3.822-1.268,3.824-3.799c0.005-4.912,0.001-9.823,0.003-14.735c0-1.115,0.005-1.112,1.131-1.121
					c0.589-0.005,1.178,0.017,1.761-0.127c2.169-0.535,3.68-2.273,3.689-4.503C603.01,875.597,603.015,867.545,602.976,859.493z
					 M541.037,828.716c11.619-0.001,23.237-0.001,34.856,0c1.193,0,1.206,0.015,1.207,1.222c0.001,4.884-0.002,9.767,0.002,14.651
					c0.001,1.765,0.543,2.305,2.307,2.306c4.159,0.003,8.318,0,12.477,0.003c0.997,0.001,1.044,0.046,1.046,1.052
					c0.006,1.932,0.005,3.864,0,5.796c-0.003,1.038-0.051,1.085-1.098,1.085c-8.479,0.002-16.958,0.001-25.438,0.001
					c-8.452,0-16.905,0-25.357,0c-1.198,0-1.202-0.003-1.202-1.221c-0.001-7.889-0.001-15.778,0-23.667
					C539.838,828.724,539.847,828.716,541.037,828.716z M591.731,903.645c-8.454,0.001-16.908,0.001-25.362,0.001
					c-8.427,0-16.854,0.001-25.281,0c-1.245,0-1.249-0.003-1.249-1.262c-0.001-4.348-0.003-8.696,0.001-13.043
					c0.001-1.01,0.051-1.059,1.041-1.059c16.989-0.002,33.977-0.002,50.966,0c1.041,0,1.086,0.044,1.087,1.094
					c0.003,4.348,0.003,8.696,0.001,13.043C592.934,903.634,592.923,903.645,591.731,903.645z"/>
			</g>
			<g>
				<path style="fill:#FFFFFF;" d="M549.998,865.772v3.986h6.891v3.074h-6.891v3.986h7.659v3.073h-10.901v-17.193h10.901v3.073
					H549.998z"/>
				<path style="fill:#FFFFFF;" d="M560.635,879.891v-17.193h6.051c0.816,0,1.581,0.132,2.293,0.396
					c0.712,0.264,1.333,0.636,1.861,1.117c0.528,0.48,0.944,1.053,1.249,1.717c0.304,0.665,0.456,1.397,0.456,2.198
					c0,0.816-0.152,1.557-0.456,2.221c-0.305,0.664-0.721,1.236-1.249,1.717c-0.528,0.48-1.149,0.852-1.861,1.117
					c-0.713,0.264-1.477,0.396-2.293,0.396h-2.809v6.315H560.635z M566.735,870.503c0.848,0,1.489-0.241,1.921-0.721
					c0.432-0.48,0.648-1.032,0.648-1.656c0-0.304-0.052-0.601-0.156-0.889c-0.105-0.288-0.264-0.54-0.48-0.756
					c-0.216-0.217-0.484-0.388-0.805-0.516c-0.32-0.129-0.696-0.193-1.128-0.193h-2.857v4.731H566.735z"/>
				<path style="fill:#FFFFFF;" d="M580.109,880.275c-0.737,0-1.441-0.104-2.113-0.312c-0.672-0.208-1.289-0.52-1.849-0.936
					c-0.56-0.416-1.049-0.925-1.465-1.525c-0.416-0.601-0.744-1.301-0.985-2.101l3.049-1.2c0.224,0.864,0.616,1.581,1.177,2.149
					c0.56,0.568,1.296,0.852,2.209,0.852c0.336,0,0.66-0.044,0.973-0.132c0.312-0.087,0.592-0.216,0.84-0.384
					c0.248-0.168,0.444-0.38,0.588-0.636c0.144-0.256,0.217-0.552,0.217-0.888c0-0.32-0.057-0.608-0.168-0.865
					c-0.112-0.255-0.3-0.495-0.565-0.72c-0.264-0.224-0.608-0.44-1.032-0.648c-0.424-0.208-0.949-0.424-1.573-0.648l-1.056-0.384
					c-0.465-0.16-0.932-0.376-1.404-0.648c-0.473-0.272-0.901-0.6-1.285-0.985c-0.384-0.384-0.701-0.836-0.949-1.357
					c-0.248-0.52-0.372-1.108-0.372-1.765c0-0.672,0.132-1.301,0.396-1.885c0.264-0.584,0.64-1.096,1.129-1.537
					c0.489-0.44,1.073-0.784,1.753-1.032c0.68-0.248,1.437-0.372,2.269-0.372c0.865,0,1.613,0.116,2.246,0.348
					c0.632,0.232,1.168,0.528,1.609,0.888c0.44,0.36,0.796,0.757,1.068,1.188c0.272,0.433,0.472,0.84,0.601,1.225l-2.857,1.2
					c-0.161-0.48-0.453-0.913-0.877-1.297s-1.005-0.576-1.741-0.576c-0.705,0-1.289,0.164-1.753,0.492
					c-0.465,0.329-0.696,0.757-0.696,1.285c0,0.512,0.224,0.949,0.672,1.309c0.448,0.36,1.16,0.708,2.137,1.044l1.08,0.36
					c0.689,0.241,1.317,0.517,1.885,0.828c0.568,0.312,1.056,0.684,1.465,1.117c0.408,0.433,0.72,0.925,0.936,1.477
					c0.216,0.552,0.324,1.189,0.324,1.909c0,0.897-0.18,1.669-0.54,2.317c-0.36,0.648-0.821,1.181-1.38,1.597
					c-0.561,0.416-1.193,0.728-1.897,0.936C581.47,880.172,580.782,880.275,580.109,880.275z"/>
			</g>
			<g>
				<path style="fill:#FFFFFF;" d="M655.431,876.625l8.716-10.854h-8.332v-3.073h12.103v3.266l-8.621,10.854h8.716v3.073h-12.582
					V876.625z"/>
				<path style="fill:#FFFFFF;" d="M670.702,862.699h3.242v17.193h-3.242V862.699z"/>
				<path style="fill:#FFFFFF;" d="M677.402,879.891v-17.193h6.051c0.817,0,1.581,0.132,2.293,0.396
					c0.712,0.264,1.333,0.636,1.861,1.117s0.944,1.053,1.249,1.717c0.304,0.665,0.456,1.397,0.456,2.198
					c0,0.816-0.152,1.557-0.456,2.221c-0.305,0.664-0.721,1.236-1.249,1.717s-1.149,0.852-1.861,1.117
					c-0.713,0.264-1.477,0.396-2.293,0.396h-2.809v6.315H677.402z M683.501,870.503c0.848,0,1.489-0.241,1.921-0.721
					c0.433-0.48,0.648-1.032,0.648-1.656c0-0.304-0.052-0.601-0.156-0.889c-0.105-0.288-0.264-0.54-0.48-0.756
					c-0.216-0.217-0.484-0.388-0.805-0.516c-0.32-0.129-0.696-0.193-1.128-0.193h-2.857v4.731H683.501z"/>
			</g>
		</g>
		<g style="opacity:0.61;">
			<path style="fill:#606060;" d="M609.144,863.785h19.739v4.881h-19.739V863.785z M609.144,872.201h19.739v4.884h-19.739V872.201z"
				/>
		</g>
	</g>
	<g style="opacity:0.61;">
		<path style="fill:#606060;" d="M297,963.076h3.498c2.75,0,4.603,1.768,4.603,4.297s-1.854,4.296-4.603,4.296H297V963.076z
			 M300.449,970.883c2.283,0,3.756-1.448,3.756-3.51s-1.473-3.511-3.756-3.511h-2.541v7.021H300.449z"/>
		<path style="fill:#606060;" d="M315.251,967.373c0-2.504,1.915-4.37,4.517-4.37c2.577,0,4.505,1.853,4.505,4.37
			c0,2.516-1.927,4.369-4.505,4.369C317.166,971.742,315.251,969.877,315.251,967.373z M323.365,967.373
			c0-2.05-1.534-3.56-3.596-3.56c-2.075,0-3.621,1.51-3.621,3.56c0,2.049,1.546,3.559,3.621,3.559
			C321.831,970.932,323.365,969.422,323.365,967.373z"/>
		<path style="fill:#606060;" d="M346.724,963.076l-2.897,8.593h-0.957l-2.516-7.328l-2.529,7.328h-0.945l-2.897-8.593h0.933
			l2.479,7.389l2.566-7.389h0.847l2.529,7.426l2.516-7.426H346.724z"/>
		<path style="fill:#606060;" d="M364.435,963.076v8.593h-0.749l-5.524-6.972v6.972h-0.908v-8.593h0.749l5.536,6.973v-6.973H364.435
			z"/>
		<path style="fill:#606060;" d="M376.108,963.076h0.908v7.807h4.812v0.786h-5.72V963.076z"/>
		<path style="fill:#606060;" d="M391.279,967.373c0-2.504,1.915-4.37,4.517-4.37c2.577,0,4.505,1.853,4.505,4.37
			c0,2.516-1.927,4.369-4.505,4.369C393.194,971.742,391.279,969.877,391.279,967.373z M399.392,967.373
			c0-2.05-1.534-3.56-3.596-3.56c-2.075,0-3.621,1.51-3.621,3.56c0,2.049,1.546,3.559,3.621,3.559
			C397.858,970.932,399.392,969.422,399.392,967.373z"/>
		<path style="fill:#606060;" d="M416.478,969.374h-4.787l-1.031,2.295h-0.945l3.928-8.593h0.896l3.928,8.593h-0.957
			L416.478,969.374z M416.147,968.637l-2.062-4.615l-2.062,4.615H416.147z"/>
		<path style="fill:#606060;" d="M428.765,963.076h3.498c2.75,0,4.603,1.768,4.603,4.297s-1.854,4.296-4.603,4.296h-3.498V963.076z
			 M432.214,970.883c2.283,0,3.756-1.448,3.756-3.51s-1.473-3.511-3.756-3.511h-2.541v7.021H432.214z"/>
		<path style="fill:#606060;" d="M465.256,969.374h-4.787l-1.031,2.295h-0.945l3.928-8.593h0.896l3.928,8.593h-0.957
			L465.256,969.374z M464.925,968.637l-2.062-4.615l-2.062,4.615H464.925z"/>
		<path style="fill:#606060;" d="M477.543,963.076h0.908v7.807h4.812v0.786h-5.72V963.076z"/>
		<path style="fill:#606060;" d="M493.647,963.076h0.908v7.807h4.812v0.786h-5.72V963.076z"/>
		<path style="fill:#606060;" d="M522.749,963.862v3.376h4.443v0.786h-4.443v3.646h-0.909v-8.593h5.891v0.786H522.749z"/>
		<path style="fill:#606060;" d="M538.485,963.076h0.909v8.593h-0.909V963.076z"/>
		<path style="fill:#606060;" d="M551.067,963.076h0.909v7.807h4.811v0.786h-5.72V963.076z"/>
		<path style="fill:#606060;" d="M573.246,970.883v0.786h-6.076v-8.593h5.891v0.786h-4.983v3.056h4.443v0.774h-4.443v3.191H573.246z
			"/>
		<path style="fill:#606060;" d="M597.255,963.862v3.376h4.443v0.786h-4.443v3.646h-0.909v-8.593h5.891v0.786H597.255z"/>
		<path style="fill:#606060;" d="M612.119,967.373c0-2.504,1.915-4.37,4.517-4.37c2.577,0,4.505,1.853,4.505,4.37
			c0,2.516-1.927,4.369-4.505,4.369C614.034,971.742,612.119,969.877,612.119,967.373z M620.232,967.373
			c0-2.05-1.534-3.56-3.596-3.56c-2.075,0-3.622,1.51-3.622,3.56c0,2.049,1.547,3.559,3.622,3.559
			C618.698,970.932,620.232,969.422,620.232,967.373z"/>
		<path style="fill:#606060;" d="M637.919,971.669l-1.963-2.762c-0.222,0.024-0.442,0.037-0.688,0.037h-2.307v2.725h-0.909v-8.593
			h3.216c2.185,0,3.511,1.105,3.511,2.946c0,1.351-0.712,2.295-1.964,2.7l2.099,2.946H637.919z M637.871,966.022
			c0-1.375-0.909-2.161-2.627-2.161h-2.283v4.309h2.283C636.962,968.17,637.871,967.373,637.871,966.022z"/>
		<path style="fill:#606060;" d="M658.724,963.076v8.593h-0.871v-6.874l-3.376,5.782h-0.429l-3.376-5.745v6.837h-0.872v-8.593h0.749
			l3.732,6.371l3.695-6.371H658.724z"/>
		<path style="fill:#606060;" d="M675.787,969.374h-4.788l-1.031,2.295h-0.946l3.928-8.593h0.896l3.928,8.593h-0.957
			L675.787,969.374z M675.455,968.637l-2.062-4.615l-2.062,4.615H675.455z"/>
		<path style="fill:#606060;" d="M689.312,963.862h-3.02v-0.786h6.948v0.786h-3.02v7.807h-0.908V963.862z"/>
		<path style="fill:#606060;" d="M702.605,970.626l0.356-0.7c0.614,0.601,1.706,1.043,2.835,1.043c1.608,0,2.308-0.675,2.308-1.522
			c0-2.357-5.29-0.908-5.29-4.087c0-1.265,0.982-2.357,3.167-2.357c0.97,0,1.976,0.282,2.664,0.761l-0.307,0.724
			c-0.737-0.479-1.596-0.712-2.357-0.712c-1.571,0-2.271,0.7-2.271,1.559c0,2.357,5.29,0.933,5.29,4.063
			c0,1.265-1.006,2.344-3.204,2.344C704.508,971.742,703.243,971.288,702.605,970.626z"/>
	</g>
</g>
<g>
</g>
<g id="MDe2DU_1_">
	<g>
		<path style="fill:#090808;" d="M543.8,608.436c-6.028,1.015-11.676,1.945-17.315,2.92c-7.493,1.296-14.946,2.896-22.482,3.826
			c-3.781,0.467-7.764,0.091-11.559-0.509c-11.346-1.795-22.644-3.89-33.961-5.859c-0.713-0.125-1.439-0.181-2.485-0.307
			c0.234,3.558,0.451,6.993,0.686,10.425c1.611,23.504,3.283,47.004,4.821,70.513c1.057,16.157,2.067,32.32,2.832,48.493
			c0.409,8.619,0.937,7.567-7.213,9.503c-2.993,0.711-6.05,1.194-8.987,2.082c-2.701,0.816-4.946,0.333-7.361-1.024
			c-7.126-4.004-14.35-7.835-21.567-11.672c-1.508-0.802-2.248-1.827-2.396-3.582c-2.154-25.735-4.364-51.466-6.567-77.197
			c-1.776-20.728-3.541-41.458-5.401-62.179c-0.095-1.056-0.813-2.27-1.608-3.018c-10.431-9.821-21.006-19.49-31.369-29.382
			c-4.033-3.849-7.533-8.251-11.441-12.238c-5.162-5.265-6.593-11.858-7.254-18.826c-1.405-14.827-2.876-29.648-4.315-44.471
			c-0.047-0.481-0.202-1.034-0.036-1.442c2.67-6.53-0.179-13.094,0.17-19.629c0.272-5.096-2.112-9.358-4.018-13.806
			c-1.847-4.309-3.633-8.656-5.147-13.087c-0.475-1.39-0.369-3.248,0.137-4.653c1.341-3.723,2.881-7.398,4.66-10.933
			c1.381-2.746,2.221-5.481,2.068-8.564c-0.203-4.114,1.458-7.234,4.809-9.77c1.296-0.982,2.196-2.991,2.518-4.678
			c2.796-14.63,5.508-29.301,11.079-43.179c2.085-5.194,5.096-10.07,8.118-14.815c1.904-2.988,4.993-4.787,8.704-5.212
			c0.619-0.071,1.403-0.48,1.739-0.981c8.028-11.982,19.316-20.257,31.712-26.952c13.59-7.341,27.661-13.785,41.347-20.957
			c9.104-4.77,17.904-10.142,25.647-17.002c4.837-4.286,8.838-9.194,10.76-15.578c0.872-2.894,3.157-4.471,6.167-4.739
			c3.293-0.293,5.82,1.287,7.073,4.156c6.246,14.296,17.559,23.419,30.946,30.289c14.038,7.205,28.373,13.832,42.361,21.129
			c11.95,6.233,23.193,13.59,32.116,23.961c0.476,0.553,0.987,1.085,1.386,1.689c1.865,2.819,3.761,5.107,7.584,5.91
			c4.21,0.886,6.601,4.74,8.774,8.294c4.998,8.173,7.871,17.218,10.151,26.409c2.256,9.102,4.004,18.333,5.9,27.522
			c0.463,2.24,1.262,4.061,3.296,5.381c3.223,2.093,4.368,5.387,4.19,9.048c-0.151,3.109,0.65,5.832,2.015,8.579
			c1.724,3.471,3.079,7.124,4.673,10.663c0.852,1.891,0.891,3.688,0.087,5.607c-1.813,4.327-3.219,8.858-5.382,12.998
			c-2.789,5.333-3.774,10.919-3.966,16.804c-0.121,3.719-0.528,7.428-0.807,11.141c-0.03,0.404-0.216,0.88-0.067,1.2
			c2.695,5.779,0.619,11.677,0.187,17.441c-0.865,11.533-2.579,23.002-3.504,34.533c-0.585,7.287-3.759,13.007-8.504,18.278
			c-12.651,14.053-26.644,26.697-40.752,39.225c-1.381,1.227-2.093,2.479-2.241,4.282c-1.184,14.443-2.404,28.884-3.646,43.322
			c-1.401,16.291-2.847,32.578-4.257,48.87c-1.291,14.92-2.634,29.838-3.78,44.77c-0.229,2.978-1.193,4.793-3.966,6.187
			c-7.3,3.667-14.393,7.745-21.653,11.496c-1.235,0.638-2.963,0.854-4.337,0.595c-4.846-0.916-9.616-2.227-14.457-3.179
			c-2.712-0.532-3.587-2.031-3.461-4.606c0.43-8.733,0.671-17.477,1.204-26.203c1.007-16.487,2.143-32.966,3.266-49.444
			c1.013-14.862,2.077-29.719,3.122-44.577C543.143,617.457,543.457,613.191,543.8,608.436z M359.342,532.873
			c-0.039-0.347-0.077-0.694-0.116-1.041c-0.102-16.339-0.205-32.677-0.307-49.016c0.095-0.787,0.27-1.573,0.273-2.359
			c0.022-8.395,0-16.789,0.023-25.184c0.029-10.652,0.087-21.304,0.133-31.956c6.859,4.477,14.064,8.187,21.774,11.069
			c18.65,6.97,37.299,13.896,56.987,17.405c4.124,0.735,8.35,0.924,12.539,1.241c1.198,0.09,2.575-0.172,1.127-1.884
			c-0.816-4.784-1.116-5.103-5.661-6.091c-18.172-3.95-36.205-8.411-53.692-14.826c-7.979-2.927-15.799-6.194-22.691-11.328
			c-3.839-2.859-6.193-6.54-6.665-11.343c-0.213-2.163-0.378-4.33-0.564-6.495c1.009-5.483,2.018-10.966,3.027-16.45
			c0.172-0.26,0.404-0.499,0.507-0.784c2.168-6.075,4.499-12.101,6.392-18.262c0.75-2.44,0.523-5.181,0.741-7.784
			c0.68-3.141,1.361-6.281,2.041-9.423c-0.29-0.114-0.581-0.229-0.872-0.343c-1.195,2.375-2.542,4.687-3.561,7.135
			c-6.103,14.662-9.119,30.144-11.909,45.671c-0.563,3.134-1.863,5.668-4.533,7.407c-2.039,1.327-2.837,3.174-2.764,5.555
			c0.244,8.004,0.257,16.019,0.696,24.011c0.779,14.138,1.821,28.261,2.7,42.393c0.068,1.09-0.263,2.208-0.436,3.309
			c-0.196,1.244-0.709,2.513-0.592,3.722c1.436,14.892,2.964,29.775,4.467,44.66c0.062,0.333,0.124,0.666,0.187,0.998
			c0.084,0.65,0.167,1.299,0.251,1.949c0.27,1.733,0.54,3.467,0.81,5.2c0.296-0.054,0.593-0.109,0.889-0.163
			c-0.341-1.691-0.681-3.381-1.021-5.073C359.461,534.151,359.402,533.512,359.342,532.873z M376.828,344.752
			c-0.633,0.824-1.265,1.648-1.899,2.472c-0.033,0.384-0.067,0.767-0.1,1.15c0.261-0.179,0.522-0.358,0.784-0.537
			c0.486-0.943,0.972-1.886,1.454-2.83c0.057-0.187,0.114-0.373,0.172-0.559C377.102,344.549,376.965,344.651,376.828,344.752z
			 M463.264,498.749c-2.586,2.297-5.172,4.595-7.759,6.893c-1.184,0.441-2.341,1.15-3.558,1.28
			c-7.832,0.83-15.618,0.356-23.374-0.98c-13.83-2.382-25.612-9.002-36.561-17.418c-1.568-1.205-3.308-2.186-4.969-3.271
			c-2.493-2.404-4.962-4.841-8.319-6.051c0.195,1.136,0.602,1.996,1.084,2.81c3.439,5.813,7.337,11.281,13.453,14.526
			c2.184,1.158,3.027,2.433,2.513,4.735c-2.607,2.13-4.716,0.373-6.764-0.983c-7.385-4.89-12.324-11.867-15.913-19.755
			c-1.396-3.069-3.173-4.21-6.304-3.698c-2.621,0.102-3.811,1.206-3.895,3.79c-0.076,2.339-0.04,4.683-0.033,7.024
			c0.04,13.976,5.632,25.258,16.5,33.976c0.457,0.344,0.913,0.689,1.37,1.033h-0.001c2.076,1.571,4.151,3.142,6.394,4.84
			c-4.62-1.295-8.712-3.261-12.384-6.096c-1.637-1.263-3.254-2.551-4.881-3.829c-1.093-1.616-2.185-3.231-3.53-5.221
			c-2.813,23.994,10.535,52.596,33.412,68.164c0.13-1.573,0.246-2.987,0.362-4.401c0.361-1.198,0.811-2.378,1.07-3.599
			c1.327-6.244,2.604-12.5,3.899-18.752c0.133,0.009,0.267,0.018,0.399,0.027c0.306,1.778,0.612,3.556,0.918,5.333
			c0.067,1.939,0.02,3.89,0.222,5.815c1.063,10.123,2.248,20.233,3.271,30.36c0.626,6.197,1.006,12.419,1.55,18.623
			c1.541,17.57,3.141,35.135,4.662,52.707c1.855,21.44,3.637,42.886,5.538,64.322c0.073,0.833,0.864,1.904,1.622,2.33
			c5.778,3.249,11.627,6.371,17.463,9.518c0.654,0.353,1.359,0.611,2.311,1.034c-0.253-4.478-0.469-8.51-0.713-12.539
			c-1.179-19.467-2.358-38.932-3.55-58.398c-1.184-19.307-2.383-38.613-3.576-57.919c-0.076-2.253-0.138-4.508-0.233-6.761
			c-0.119-2.812-0.649-5.667-0.325-8.424c0.856-7.293,2.107-14.539,3.145-21.81c2.293-16.054,4.553-32.113,6.887-48.591
			c0.124,2.113,0.221,3.789,0.32,5.464c-0.065,19.5-0.126,38.998-0.198,58.498c-0.019,4.959-0.036,4.958-4.879,6.449
			c-0.327,0.101-0.64,0.246-1.674,0.647c2.513,0.496,4.306,0.864,6.104,1.203c15.085,2.845,30.171,5.685,45.257,8.527
			c3.147,0.661,6.295,1.323,9.442,1.984c0.036-0.116,0.073-0.233,0.109-0.35c-0.593-0.319-1.184-0.638-1.359-0.732
			c21.266-3.482,42.844-7.015,64.421-10.547c-0.002-0.21-0.004-0.421-0.006-0.631c-1.144-0.342-2.266-0.827-3.434-0.998
			c-2.477-0.362-3.138-1.658-3.162-4.131c-0.096-10.038-0.479-20.072-0.708-30.108c-0.268-11.728-0.487-23.457-0.731-35.185
			c-0.002-0.06-0.053-0.119-0.08-0.177c0.038,0.005,0.077,0.01,0.167,0.023c0.126,0.606,0.283,1.224,0.38,1.852
			c2.94,19.038,5.835,38.083,8.827,57.113c1.107,7.034,1.943,14.002,1.433,21.205c-1.654,23.336-2.937,46.699-4.347,70.053
			c-1.097,18.18-2.176,36.361-3.249,54.542c-0.182,3.09-0.295,6.182-0.44,9.262c0.536,0,0.721,0.057,0.841-0.008
			c6.42-3.439,12.85-6.861,19.224-10.381c0.564-0.311,1.047-1.242,1.109-1.927c1.336-14.589,2.621-29.182,3.882-43.778
			c1.38-15.966,2.641-31.943,4.107-47.901c1.775-19.326,3.715-38.637,5.571-57.956c0.892-9.285,1.755-18.573,2.631-27.859
			c0.145-0.016,0.29-0.033,0.436-0.05c1.875,8.93,3.749,17.858,5.722,27.254c6.33-5.959,12.24-11.479,18.087-17.064
			c1.098-1.049,2.113-2.261,2.883-3.565c7.573-12.834,13.684-26.115,12.415-41.603c-0.147-1.783-0.02-3.587-0.02-5.383
			c-5.769,7.001-12.464,11.947-21.035,14.142c0.537-0.493,1.155-0.861,1.778-1.22c9.36-5.39,15.848-13.364,19.778-23.236
			c2.883-7.243,2.923-15.032,2.447-22.753c-0.113-1.81-1.198-3.201-3.05-3.205c-2.079-0.005-4.441-0.948-5.912,1.878
			c-2.196,4.22-4.555,8.393-7.253,12.305c-3.153,4.57-7.199,8.323-12.282,10.781c-1.572,0.759-3.067,0.663-3.946-1.052
			c-0.882-1.725-0.019-2.847,1.465-3.809c2.096-1.357,4.27-2.672,6.096-4.349c4.003-3.676,7.104-8.055,9.204-13.23
			c-0.839,0.055-1.573,0.253-2.155,0.663c-1.387,0.98-2.656,2.132-4.057,3.088c-8.081,5.514-15.793,11.728-24.377,16.305
			c-12.684,6.764-26.644,8.716-41.001,7.642c-2.443-0.182-4.517-0.732-6.308-2.546c-1.641-1.661-3.57-3.037-5.372-4.539
			c-0.21,0.207-0.419,0.414-0.628,0.621c3.865,4.941,7.73,9.882,11.594,14.823c-0.127,0.129-0.253,0.259-0.38,0.387
			c-8.056-6.62-16.111-13.241-24.856-20.427c-0.744,3.272-2.19,5.95-1.754,8.275c4.573,24.416,9.431,48.779,14.276,73.143
			c0.301,1.517,0.044,2.33-1.293,3.158c-11.081,6.86-22.129,13.774-33.147,20.732c-1.296,0.818-2.265,0.764-3.524-0.032
			c-10.543-6.653-21.061-13.351-31.732-19.794c-2.49-1.502-2.799-2.941-2.264-5.596c4.751-23.557,9.302-47.154,14.031-70.716
			c0.575-2.864-0.509-4.996-1.851-7.21c-0.11-0.451-0.221-0.901-0.433-1.771c-6.897,5.74-13.567,11.293-20.239,16.845
			c-1.476,0.954-2.953,1.907-4.431,2.862l0.041,0.033c0.721-0.968,1.447-1.933,2.164-2.904c1.895-2.573,3.785-5.148,5.678-7.722
			c1.689-1.943,3.378-3.885,5.067-5.828c0.216-0.325,0.433-0.65,0.65-0.975c-0.209-0.162-0.417-0.324-0.626-0.487
			C463.832,497.862,463.548,498.306,463.264,498.749z M497.514,419.012c0.022-1.869,0.045-3.737,0.068-5.606
			c0.093-0.635,0.26-1.268,0.27-1.905c0.311-20.284,0.568-40.569,0.916-60.853c0.296-17.131,0.685-34.261,1.072-51.391
			c0.019-0.808,0.415-1.608,0.635-2.412c0.621,40.687,1.241,81.373,1.862,122.059c0.214,0.063,0.429,0.126,0.644,0.189
			c0.995-1.672,1.99-3.345,2.987-5.016c3.072-3.074,6.254-6.048,9.171-9.263c1.468-1.618,2.939-3.527,3.548-5.562
			c0.893-2.98,1.385-6.189,1.401-9.304c0.117-22.355,0.07-44.71,0.076-67.065c0.001-1.207,0-2.415,0-3.622
			c1.205,12.89,2.067,25.785,2.902,38.682c0.404,6.221,0.713,12.449,1.154,18.667c0.371,5.216,2.842,9.078,7.811,11.016
			c3.357,1.31,5.838,0.308,6.955-3.041c0.777-2.33,1.314-4.896,1.235-7.332c-0.549-16.913-1.097-33.831-2.033-50.725
			c-0.63-11.388-1.958-22.736-2.832-34.113c-0.252-3.281-1.539-5.292-4.557-6.915c-9.95-5.353-18.628-12.339-25.118-21.719
			c-1.717-2.481-2.93-5.313-4.374-7.983c-1.683-1.457-2.935-1.191-3.681,1.019c-1.654,4.889-4.713,8.824-8.216,12.463
			c-6.445,6.693-13.825,12.21-21.832,16.87c-1.804,1.05-2.692,2.246-2.866,4.316c-0.93,11.044-2.253,22.063-2.884,33.122
			c-1.033,18.099-1.67,36.22-2.37,54.336c-0.073,1.892,0.402,3.85,0.883,5.71c1.389,5.367,5.47,5.228,8.816,3.379
			c3.921-2.138,6.09-5.499,6.392-9.887c0.993-14.413,1.824-28.836,2.816-43.247c0.398-5.778,1.053-11.537,1.591-17.304
			c-0.09,24.777-0.18,49.555-0.261,74.333c-0.002,0.889,0.051,1.782,0.152,2.665c0.573,5.01,2.104,9.304,6.148,12.946
			c4.096,3.687,7.273,8.396,10.852,12.657c0.172,0.204,0.344,0.41,0.515,0.614C497.412,419.53,497.463,419.272,497.514,419.012z
			 M616.888,445.09c0.242,0.279,0.485,0.557,0.728,0.836c-2.297,2.5-4.69,4.921-6.84,7.541c-0.79,0.962-1.374,2.382-1.417,3.615
			c-0.164,4.687-0.067,9.381-0.069,14.073c0,1.659,0,3.318,0,5.34c5.073-1.919,9.307-4.321,13.234-7.319
			c4.496-3.431,7.488-7.536,6.518-13.581c-0.1-0.628,0.032-1.291,0.033-1.939c0.004-5.461,0.001-10.923,0.001-15.869
			c-14.845,5.361-29.95,10.815-44.815,16.181C590.412,454.453,604.63,450.626,616.888,445.09z M625.042,347.885
			c-0.584-0.941-1.167-1.883-1.75-2.824c-0.139,0.084-0.279,0.169-0.418,0.253c0.536,1.033,1.072,2.067,1.608,3.1
			c0.61,4.547,1.203,9.098,1.847,13.641c0.146,1.027,0.381,2.061,0.735,3.034c1.407,3.879,2.952,7.707,4.31,11.602
			c3.235,9.276,6.046,18.644,5.566,28.65c-0.257,5.364-2.023,10-6.544,13.2c-2.57,1.819-5.179,3.631-7.956,5.098
			c-11.01,5.819-22.794,9.673-34.746,12.927c-11.781,3.207-23.703,5.901-35.553,8.86c-0.967,0.241-2.316,0.532-2.699,1.23
			c-0.977,1.784-1.508,3.813-2.46,6.401c17.316-0.191,32.983-5.067,48.44-10.396c15.423-5.317,31.284-9.764,45.272-19.789
			c0,37.034,0,73.332,0,109.63c0.644-1.12,0.887-2.278,1.009-3.448c1.102-10.54,2.395-21.067,3.179-31.632
			c0.381-5.124,2.208-10.363-0.199-15.497c-0.187-0.398-0.053-0.961-0.021-1.444c0.692-10.091,1.54-20.174,2.049-30.275
			c0.615-12.201,0.939-24.418,1.398-36.627c0.087-2.304-0.793-4.042-2.753-5.311c-2.68-1.735-3.881-4.336-4.557-7.419
			c-2.541-11.61-4.849-23.295-8.038-34.73C631.003,359.813,627.668,353.947,625.042,347.885z M446.935,374.427
			c0.862-1.001,2.12-1.867,2.518-3.027c1.99-5.79,4.256-11.552,5.504-17.518c4.09-19.543,5.048-39.442,6.01-59.323
			c0.071-1.473,0.01-2.953,0.01-4.521c-0.604,0.116-0.856,0.112-1.057,0.21c-11.471,5.604-23.023,11.053-34.371,16.896
			c-5.933,3.055-11.508,6.801-17.244,10.236c-4.135,3.231-8.38,6.333-12.373,9.73c-4.247,3.612-7.554,7.96-9.154,13.449
			c-1.436,4.93-0.046,8.587,4.459,10.997c2.493,1.334,5.071,2.509,7.624,3.727c14.371,6.856,28.748,13.699,43.118,20.557
			C444.068,376.836,445.717,376.421,446.935,374.427z M494.923,458.554c-3.219,0.673-4.211,1.764-4.808,5.424
			c-2.367,14.516-4.725,29.034-7.078,43.553c-2.986,18.428-5.944,36.861-8.982,55.281c-0.278,1.684,0.065,2.604,1.596,3.483
			c7.359,4.222,14.698,8.489,21.919,12.941c2.053,1.265,3.481,1.182,4.967-0.556c7.4-4.3,14.827-8.556,22.153-12.978
			c0.641-0.386,0.992-1.922,0.853-2.828c-1.525-9.901-3.188-19.781-4.787-29.672c-3.765-23.291-7.515-46.584-11.278-69.876
			c-0.458-2.836-1.822-4.521-4.68-4.773C501.531,458.269,498.217,458.531,494.923,458.554z M444.412,432.746
			c0.067-0.893,0.425-1.894,0.143-2.659c-0.806-2.184-1.667-4.399-2.876-6.376c-4.036-6.603-8.233-13.107-12.369-19.649
			c0.678,0.391,1.413,0.707,2.024,1.183c12.134,9.446,24.189,18.995,36.405,28.332c5.687,4.348,8.279,9.91,8.149,16.956
			c-0.02,1.058,0.503,2.127,0.848,3.48c1.241-0.832,1.999-1.293,2.699-1.83c0.302-0.233,0.484-0.624,0.72-0.942
			c0.472-0.27,1.05-0.443,1.399-0.826c3.796-4.163,7.551-8.361,11.325-12.544c0.559-0.619,0.87-2.028,2.106-0.732
			c-1.472,5.819-2.943,11.636-4.393,17.37c0.797-0.296,1.978-0.736,3.159-1.175l-0.048-0.158c5.385,0.252,10.771,0.505,16.057,0.753
			c-0.344-0.539-0.94-1.473-1.536-2.407c-0.762-2.542-1.664-5.053-2.244-7.636c-0.529-2.352-0.709-4.782-1.043-7.179
			c0.261-0.088,0.521-0.176,0.782-0.265c4.961,6.426,9.826,12.952,17.456,17.529c0.25-1.54,0.563-2.582,0.564-3.626
			c0.01-6.134,1.764-11.616,6.661-15.506c12.423-9.867,24.987-19.556,37.499-29.309c0.755-0.588,1.552-1.122,2.329-1.681
			c-1.789,3.259-3.922,6.127-5.709,9.196c-3.209,5.513-6.378,11.064-9.222,16.768c-1.31,2.628-0.076,4.134,2.856,4.337
			c0.72,0.05,1.461-0.012,2.176-0.127c10.313-1.654,20.536-3.6,30.241-7.71c9.39-3.976,18.89-7.673,27.419-13.428
			c4.747-3.203,6.863-7.351,6.396-13.147c-0.63-7.814-2.57-15.293-4.807-22.745c-0.493-1.645-1.219-2.138-2.902-2.047
			c-8.71,0.473-17.16,2.294-25.449,4.863c-21.847,6.769-41.677,17.638-60.666,30.163c-5.027,3.316-9.911,6.849-14.862,10.282
			c0.428-0.893,0.986-1.653,1.665-2.283c8.304-7.695,16.25-15.833,25.017-22.961c21.616-17.576,45.457-31.211,72.533-38.661
			c0.577-0.159,1.435-0.521,1.547-0.95c0.889-3.384,1.023-6.787-0.167-10.153c-0.54,4.233-2.833,6.898-6.628,8.661
			c-10.64,4.944-21.124,10.227-31.826,15.03c-19.441,8.725-37.679,19.43-54.504,32.496c-7.05,5.474-13.762,11.364-18.254,19.258
			c-0.86,1.511-1.028,3.459-1.326,5.238c-0.529,3.167-0.73,6.398-1.424,9.522c-0.428,1.927-1.878,2.802-3.887,1.587
			c-0.186-0.464-0.372-0.927-0.558-1.391c-0.479-2.51-1.445-5.044-1.321-7.525c0.187-3.759-1.023-6.851-3.219-9.614
			c-2.605-3.279-5.229-6.598-8.235-9.494c-11.304-10.894-24.498-19.207-37.927-27.159c-2.474-1.465-5.089-2.693-7.638-4.03
			c-0.759-0.453-1.485-0.972-2.279-1.348c-14.83-7.041-29.617-14.174-44.533-21.027c-4.745-2.181-8.67-4.671-9.137-11.149
			c-1.685,4.081-1.119,7.443-0.492,10.761c0.101,0.536,1.061,1.136,1.726,1.306c12.462,3.19,24.167,8.292,35.507,14.233
			c24.249,12.701,45.415,29.427,63.964,49.51c-0.632-0.305-1.319-0.532-1.888-0.927c-3.984-2.762-7.89-5.641-11.922-8.33
			c-19.305-12.872-39.483-24.039-61.759-30.975c-8.187-2.549-16.524-4.493-25.156-4.792c-1.366-0.265-2.816-0.693-3.275,1.289
			c-1.601,6.914-3.344,13.799-4.735,20.755c-1.524,7.617,1.218,13.25,8.135,17.14c13.649,7.675,27.781,14.073,43.142,17.449
			c4.26,0.936,8.563,1.699,12.873,2.367C441.378,434.346,443.285,434.7,444.412,432.746z M538.874,290.037
			c-0.069,0.928-0.153,1.404-0.132,1.876c0.786,17.624,1.677,35.241,4.411,52.698c1.314,8.393,2.574,16.828,6.138,24.648
			c0.921,2.02,2.219,3.956,3.704,5.605c1.459,1.621,3.392,1.998,5.476,0.633c1.48-0.969,3.125-1.697,4.732-2.459
			c15.133-7.175,30.281-14.315,45.405-21.508c4.344-2.065,5.644-4.743,4.607-9.472c-0.898-4.091-2.67-7.775-5.51-10.921
			c-5.301-5.876-11.283-11.041-18.139-14.878c-12.201-6.827-24.673-13.174-37.077-19.636
			C548.135,294.353,543.649,292.337,538.874,290.037z M445.175,744.964c4.056-0.887,7.796-1.846,11.589-2.483
			c2.247-0.377,2.859-1.378,2.725-3.562c-0.602-9.849-1.043-19.707-1.594-29.558c-0.112-2.005,0.001-4.191-0.762-5.961
			c-3.23-7.495-6.499-14.995-10.258-22.23c-2.368-4.558-4.618-9.061-5.63-14.115c-0.109-0.542-0.342-1.059-0.518-1.588
			c-0.099,0.024-0.198,0.047-0.296,0.07C442.006,691.899,443.58,718.262,445.175,744.964z M558.922,672.021
			c-2.2,4.144-4.6,8.172-6.539,12.411c-4.844,10.594-11.173,20.653-11.115,32.986c0.035,7.432-0.671,14.866-0.96,22.301
			c-0.029,0.732,0.396,2.03,0.85,2.148c4.353,1.133,8.756,2.07,13.414,3.124C556.036,720.431,557.479,696.23,558.922,672.021z
			 M416.205,454.219c-15.607-5.627-30.674-11.06-45.81-16.517c0,0.561-0.019,1.516,0.003,2.469
			c0.128,5.582,0.554,11.177,0.308,16.743c-0.197,4.456,1.252,7.706,4.58,10.576c4.458,3.846,9.361,6.778,15.181,9
			c0-6.405-0.079-12.455,0.043-18.501c0.042-2.093-0.501-3.656-2.004-5.153c-2.461-2.452-4.696-5.132-7.027-7.716
			C392.665,449.421,403.72,453.39,416.205,454.219z M561.929,618.768c-0.558,0.674-0.792,0.882-0.936,1.141
			c-4.855,8.765-9.71,17.53-14.528,26.315c-0.333,0.608-0.477,1.368-0.533,2.072c-0.333,4.187-0.626,8.379-0.911,12.571
			c-0.159,2.357-0.279,4.716-0.441,7.503c0.507-0.533,0.723-0.666,0.803-0.856c4.682-11.088,9.33-22.19,14.038-33.267
			C561.452,629.467,562.094,624.49,561.929,618.768z M438.146,616.395c-0.241,0.041-0.483,0.081-0.725,0.121
			c0.284,2.361,0.138,4.877,0.926,7.056c3.713,10.259,7.636,20.444,11.585,30.616c1.384,3.567,3.057,7.023,4.599,10.53
			c-0.024-6.608-0.446-13.063-0.902-19.515c-0.039-0.545-0.225-1.122-0.49-1.604C448.154,634.524,443.148,625.461,438.146,616.395z
			 M362.876,430.58c0,12.175,0,23.734,0,35.293c1.958-9.353,3.617-18.728,5.23-28.112c0.084-0.488-0.068-1.168-0.374-1.544
			C366.272,434.423,364.721,432.703,362.876,430.58z M636.811,430.779c-1.465,1.634-2.48,2.904-3.64,4.024
			c-1.359,1.311-1.713,2.696-1.27,4.573c0.707,2.987,1.109,6.044,1.641,9.073c1.001,5.693,2.004,11.385,3.007,17.078
			c0.087-0.012,0.175-0.025,0.262-0.038C636.811,454.1,636.811,442.712,636.811,430.779z M344.573,438.951
			c2.644-1.289,3.527-6.15,1.765-10.741C345.457,431.973,341.786,434.86,344.573,438.951z M654.894,439.137
			c1.844-3.021,1.021-7.092-2.043-10.678C653.146,432.126,651.339,435.974,654.894,439.137z M536.395,499.614
			c0.054,0.048,0.112,0.142,0.167,0.141c0.056-0.001,0.108-0.099,0.161-0.155c-0.08-0.056-0.161-0.111-0.241-0.167
			C536.455,499.489,536.429,499.544,536.395,499.614z"/>
		<path style="fill:#887F79;" d="M406.394,559.128c-0.306-1.777-0.612-3.555-0.918-5.333c-0.133-0.009-0.266-0.018-0.399-0.027
			c-1.295,6.252-2.573,12.507-3.899,18.752c-0.259,1.221-0.709,2.4-1.07,3.599c-1.14-0.826-2.401-1.528-3.399-2.5
			c-4.21-4.105-8.949-7.848-12.376-12.539c-7.176-9.827-11.571-21.084-14.073-32.973c-0.713-3.388-0.296-7.013-0.396-10.53
			c1.627,1.278,3.244,2.566,4.881,3.829c3.673,2.834,7.764,4.801,12.384,6.096c-2.243-1.698-4.319-3.269-6.394-4.84
			c0.939,0.341,1.87,0.709,2.819,1.018c2.462,0.802,4.932,1.578,7.399,2.366c0.001,0,0.104,0.138,0.104,0.138l-0.128-0.115
			c-0.527-0.355-1.079-0.678-1.579-1.068c-3.866-3.014-8.194-5.601-11.492-9.147c-10.256-11.025-12.406-24.58-11.063-39.017
			c3.13-0.512,4.907,0.63,6.303,3.699c3.589,7.888,8.528,14.864,15.913,19.755c2.048,1.356,4.157,3.113,6.764,0.983
			c1.741-0.237,3.399-0.632,3.677-2.764c0.273-2.095-1.492-2.51-2.79-3.419c-2.224-1.557-4.46-3.163-6.385-5.06
			c-1.343-1.324-2.174-3.166-3.234-4.777c1.661,1.085,3.401,2.066,4.969,3.271c10.95,8.416,22.732,15.036,36.561,17.418
			c7.756,1.336,15.542,1.81,23.374,0.98c1.217-0.13,2.374-0.839,3.558-1.28c1.173-0.311,2.347-0.622,3.52-0.933
			c-1.893,2.574-3.783,5.15-5.678,7.722c-0.716,0.972-1.442,1.936-2.162,2.906c-0.013-0.011-0.028-0.022-0.043-0.034
			c1.478-0.954,2.955-1.907,4.431-2.862c0.484-0.064,1.096,0.038,1.431-0.22c2.928-2.26,5.779-4.619,8.706-6.882
			c3.484-2.693,7.021-5.318,10.536-7.973c1.342,2.214,2.426,4.347,1.851,7.21c-4.729,23.561-9.28,47.159-14.031,70.716
			c-0.535,2.654-0.226,4.093,2.264,5.596c10.671,6.443,21.189,13.141,31.732,19.794c1.259,0.796,2.228,0.85,3.524,0.032
			c11.018-6.958,22.067-13.872,33.147-20.732c1.337-0.828,1.595-1.641,1.293-3.158c-4.845-24.364-9.704-48.727-14.276-73.143
			c-0.436-2.325,1.01-5.003,1.754-8.275c8.745,7.187,16.801,13.807,24.856,20.427c0.127-0.128,0.253-0.258,0.38-0.387
			c-3.864-4.941-7.729-9.881-11.594-14.823c0.21-0.207,0.419-0.415,0.628-0.621c1.801,1.501,3.731,2.878,5.372,4.539
			c1.791,1.814,3.865,2.364,6.308,2.546c14.357,1.073,28.316-0.878,41.001-7.642c8.584-4.577,16.296-10.791,24.377-16.305
			c1.401-0.956,2.67-2.108,4.057-3.088c0.582-0.41,1.316-0.608,2.155-0.663c-2.1,5.175-5.201,9.554-9.204,13.23
			c-1.825,1.677-4,2.992-6.096,4.349c-1.484,0.961-2.347,2.084-1.465,3.809c0.879,1.715,2.374,1.811,3.946,1.052
			c5.083-2.459,9.129-6.211,12.282-10.781c2.698-3.912,5.057-8.085,7.253-12.305c1.47-2.826,3.833-1.883,5.912-1.878
			c1.853,0.004,2.938,1.395,3.05,3.205c0.476,7.721,0.436,15.51-2.447,22.753c-3.93,9.873-10.418,17.847-19.778,23.236
			c-0.623,0.359-1.241,0.727-1.778,1.22c8.57-2.196,15.266-7.141,21.035-14.142c0,1.796-0.127,3.6,0.02,5.383
			c1.27,15.488-4.841,28.769-12.415,41.603c-0.77,1.304-1.785,2.516-2.883,3.565c-5.847,5.585-11.757,11.105-18.087,17.064
			c-1.973-9.396-3.847-18.324-5.722-27.254c-0.146,0.017-0.291,0.033-0.436,0.05c-0.876,9.287-1.739,18.574-2.631,27.859
			c-1.856,19.319-3.796,38.63-5.571,57.956c-1.465,15.958-2.727,31.936-4.107,47.901c-1.261,14.596-2.547,29.189-3.882,43.778
			c-0.062,0.685-0.544,1.616-1.109,1.927c-6.375,3.521-12.804,6.943-19.224,10.381c-0.121,0.065-0.306,0.008-0.841,0.008
			c0.145-3.08,0.258-6.173,0.44-9.262c1.073-18.181,2.152-36.362,3.249-54.542c1.41-23.353,2.693-46.716,4.347-70.053
			c0.51-7.203-0.326-14.171-1.433-21.205c-2.993-19.03-5.887-38.075-8.827-57.113c-0.097-0.627-0.254-1.246-0.38-1.852
			c-0.09-0.013-0.13-0.018-0.167-0.023c0.027,0.059,0.078,0.117,0.08,0.177c0.244,11.728,0.463,23.457,0.731,35.185
			c0.23,10.036,0.613,20.07,0.708,30.108c0.024,2.474,0.685,3.769,3.162,4.131c1.168,0.171,2.29,0.656,3.434,0.998
			c0.001,0.21,0.004,0.421,0.006,0.631c-21.578,3.533-43.156,7.065-64.421,10.547c0.174,0.094,0.766,0.413,1.359,0.732
			c-0.036,0.116-0.073,0.233-0.109,0.35c-3.147-0.661-6.295-1.323-9.442-1.984c-0.87-0.63-1.653-1.562-2.624-1.841
			c-10.569-3.035-21.157-6.001-31.76-8.915c-5.933-1.63-6.016-1.565-6.358-7.573c-1.044-18.321-2.026-36.646-3.075-54.967
			c-0.039-0.689-0.52-1.353-0.795-2.03c-0.099-1.676-0.196-3.352-0.32-5.464c-2.333,16.478-4.593,32.537-6.887,48.591
			c-1.039,7.272-2.289,14.518-3.145,21.81c-0.324,2.757,0.206,5.612,0.325,8.424c0.095,2.253,0.156,4.507,0.233,6.761
			c-0.179,0.91-0.539,1.826-0.509,2.729c0.558,16.821,1.18,33.641,1.751,50.461c0.453,13.344,0.833,26.691,1.288,40.035
			c0.201,5.902,0.576,11.799,0.747,17.701c0.119,4.077,0.022,8.159,0.022,12.721c-4.387-2.521-8.463-4.804-12.453-7.224
			c-0.553-0.336-0.898-1.335-0.982-2.067c-0.411-3.616-0.715-7.244-1.031-10.87c-0.879-10.07-1.713-20.145-2.624-30.213
			c-1.213-13.371-2.507-26.734-3.721-40.104c-1.215-13.37-2.365-26.744-3.562-40.116c-1.247-13.934-2.505-27.867-3.782-41.799
			c-0.439-4.786-0.949-9.566-1.499-15.071C407.876,554.302,407.135,556.714,406.394,559.128z M557.688,523.208
			c-0.051,0.195-0.103,0.388-0.154,0.583c4.919,2.776,9.801,5.624,14.79,8.27c1.097,0.583,2.667,0.846,3.866,0.575
			c11.47-2.597,22.145-7.092,31.846-13.799c9.734-6.729,17.287-15.281,21.947-26.257c0.624-1.47,1.161-2.87-0.737-3.907
			C611.039,511.931,587.502,524.063,557.688,523.208z M442.149,523.834c-0.038-0.206-0.075-0.411-0.113-0.617
			c-29.824,0.833-53.375-11.319-71.538-34.518c-1.593,0.826-1.672,1.999-0.94,3.287c2.552,4.488,4.647,9.346,7.814,13.355
			c11.984,15.172,28.429,23.051,46.802,27.488c0.729,0.176,1.701,0.129,2.338-0.22C431.754,529.738,436.943,526.771,442.149,523.834
			z M496.16,610.521c0.005-0.078,0.01-0.156,0.016-0.234c-0.279-0.015-0.559-0.03-0.837-0.045c-0.004,0.072-0.009,0.144-0.014,0.216
			C495.603,610.479,495.881,610.5,496.16,610.521z"/>
		<path style="fill:#887F79;" d="M501.307,255.797c1.444,2.67,2.657,5.501,4.374,7.983c6.49,9.38,15.169,16.366,25.118,21.719
			c3.018,1.624,4.305,3.634,4.557,6.915c0.874,11.376,2.202,22.725,2.832,34.113c0.936,16.894,1.484,33.812,2.033,50.725
			c0.079,2.436-0.458,5.001-1.235,7.332c-1.117,3.349-3.598,4.35-6.955,3.041c-4.969-1.938-7.44-5.801-7.811-11.016
			c-0.441-6.218-0.75-12.445-1.154-18.667c-0.836-12.897-1.697-25.792-2.902-38.682c0,1.207,0.001,2.415,0,3.622
			c-0.005,22.356,0.042,44.71-0.076,67.065c-0.016,3.115-0.509,6.324-1.401,9.304c-0.609,2.035-2.08,3.944-3.548,5.562
			c-2.917,3.215-6.099,6.189-9.172,9.261c-0.099-0.718-0.257-1.432-0.284-2.151c-0.311-8.405-0.621-16.811-0.895-25.218
			c-0.523-16.087-1.013-32.174-1.535-48.261c-0.364-11.235-0.734-22.472-1.159-33.705c-0.114-3.001-0.441-5.993-0.718-9.607
			c-0.533,1.012-0.716,1.362-0.901,1.712c-0.22,0.804-0.616,1.604-0.635,2.412c-0.387,17.13-0.776,34.26-1.072,51.391
			c-0.348,20.284-0.605,40.57-0.916,60.853c-0.01,0.637-0.176,1.27-0.27,1.905c-3.381-3.459-6.81-6.873-10.11-10.407
			c-1.015-1.087-2.032-2.405-2.421-3.793c-0.824-2.933-1.59-5.964-1.747-8.988c-0.463-8.881-0.643-17.776-0.887-26.667
			c-0.436-15.852-0.837-31.705-1.257-47.557c-0.02-0.757-0.081-1.513-0.148-2.735c-0.461,1.447-0.758,2.381-1.055,3.315
			c-0.538,5.767-1.193,11.526-1.591,17.304c-0.992,14.412-1.824,28.835-2.816,43.247c-0.302,4.389-2.47,7.749-6.392,9.887
			c-5.184-1.03-5.955-5.165-6.161-9.324c-0.207-4.188,0.068-8.409,0.281-12.607c0.978-19.304,1.924-38.609,3.067-57.903
			c0.368-6.204,1.253-12.38,2.032-18.553c0.126-0.997,0.703-2.235,1.479-2.797c2.679-1.94,5.613-3.526,8.317-5.436
			C487.546,273.769,496.413,266.644,501.307,255.797z"/>
		<path style="fill:#887F79;" d="M493.703,453.177c0,0,0.048,0.158,0.047,0.157c0.439-1.336,0.926-2.658,1.307-4.01
			c1.151-4.088,2.261-8.188,3.387-12.284c2.009,1.215,3.459,0.34,3.887-1.587c0.695-3.124,0.896-6.356,1.424-9.522
			c0.298-1.779,0.466-3.727,1.326-5.238c4.492-7.893,11.204-13.784,18.254-19.258c16.826-13.066,35.063-23.771,54.504-32.496
			c10.702-4.803,21.186-10.087,31.826-15.03c3.796-1.763,6.088-4.427,6.628-8.661c1.19,3.367,1.056,6.769,0.167,10.153
			c-0.113,0.428-0.97,0.79-1.547,0.95c-27.076,7.45-50.917,21.085-72.533,38.661c-8.767,7.128-16.713,15.266-25.017,22.961
			c-0.679,0.63-1.237,1.39-1.665,2.283c4.95-3.433,9.834-6.966,14.862-10.282c18.989-12.525,38.819-23.394,60.666-30.163
			c8.289-2.569,16.739-4.39,25.449-4.863c1.683-0.091,2.409,0.401,2.902,2.047c2.236,7.453,4.177,14.931,4.807,22.745
			c0.467,5.796-1.65,9.944-6.396,13.147c-8.529,5.755-18.028,9.452-27.419,13.428c-9.705,4.11-19.928,6.055-30.241,7.71
			c-0.714,0.115-1.456,0.176-2.176,0.127c-2.931-0.203-4.166-1.709-2.856-4.337c2.844-5.704,6.013-11.256,9.222-16.768
			c1.787-3.07,3.92-5.937,5.709-9.196c-0.777,0.559-1.574,1.093-2.329,1.681c-12.512,9.753-25.076,19.442-37.499,29.309
			c-4.898,3.89-6.651,9.372-6.661,15.506c-0.002,1.044-0.315,2.086-0.564,3.626c-7.63-4.577-12.494-11.103-17.456-17.529
			c-0.261,0.089-0.521,0.177-0.782,0.265c0.334,2.396,0.514,4.827,1.043,7.179c0.581,2.583,1.482,5.093,2.244,7.636
			c-1.364,0.063-2.74,0.037-4.091,0.206C500.65,452.166,497.179,452.689,493.703,453.177z M567.434,418.403
			c-0.255-0.126-0.51-0.252-0.764-0.378c-2.33,3.057-4.744,6.053-6.928,9.211c-0.57,0.823-0.416,2.146-0.594,3.239
			c1.19-0.253,2.42-0.399,3.554-0.809c0.541-0.195,0.97-0.843,1.333-1.367C566.114,425.312,567.002,421.929,567.434,418.403z"/>
		<path style="fill:#887F79;" d="M429.311,404.064c4.136,6.541,8.333,13.044,12.369,19.647c1.209,1.977,2.07,4.192,2.876,6.376
			c0.282,0.764-0.076,1.765-0.143,2.659c-2.613-0.587-5.226-1.175-7.839-1.761c2.026-0.265,2.537-1.448,1.443-3.012
			c-2.42-3.461-5.01-6.803-7.53-10.193c-0.241,0.157-0.483,0.313-0.724,0.47c0.731,4.715,1.816,9.273,5.898,12.494
			c-0.402,0.095-0.828,0.326-1.202,0.262c-2.547-0.438-5.167-0.677-7.604-1.468c-6.368-2.066-12.741-4.168-18.953-6.651
			c-8.78-3.511-17.517-7.199-24.953-13.269c-2.197-1.793-3.961-3.959-3.827-6.964c0.195-4.334,0.309-8.71,1.023-12.973
			c0.823-4.919,2.261-9.733,3.433-14.593c8.632,0.299,16.968,2.243,25.156,4.792c22.276,6.936,42.454,18.103,61.759,30.975
			c4.033,2.689,7.938,5.568,11.922,8.33c0.57,0.395,1.256,0.622,1.888,0.927c0.24,0.056,0.481,0.113,0.723,0.167
			c0.721,0.584,1.441,1.171,2.16,1.758l0.099,0.161l-0.121-0.139c-0.63-0.662-1.26-1.325-1.89-1.988
			c-0.31-0.464-0.556-0.99-0.939-1.382c-5.267-5.364-10.456-10.81-15.857-16.036c-8.727-8.442-17.79-16.505-27.805-23.432
			c-0.471-0.326-0.755-0.924-1.125-1.394c2.549,1.337,5.164,2.565,7.638,4.03c13.43,7.951,26.623,16.264,37.927,27.159
			c3.006,2.896,5.63,6.215,8.235,9.494c2.196,2.763,3.406,5.856,3.219,9.614c-0.124,2.481,0.843,5.015,1.321,7.525
			c-0.967,0.497-1.935,0.994-2.901,1.491c-1.236-1.296-1.547,0.113-2.106,0.732c-3.774,4.182-7.53,8.381-11.325,12.544
			c-0.348,0.383-0.927,0.556-1.399,0.826c-0.243-0.936-0.66-1.865-0.7-2.81c-0.279-6.656-2.591-12.114-8.235-16.151
			c-13.734-9.824-27.322-19.852-40.992-29.767c-1.017-0.738-2.218-1.224-3.333-1.827c-0.043-0.041-0.087-0.081-0.13-0.122
			c0.054,0.031,0.107,0.062,0.161,0.093c0.64,0.966,1.28,1.931,1.92,2.897c0.171,0.185,0.343,0.37,0.514,0.555L429.311,404.064z"/>
		<path style="fill:#887F79;" d="M538.874,290.037c4.776,2.3,9.261,4.316,13.616,6.585c12.404,6.462,24.876,12.809,37.077,19.636
			c6.856,3.836,12.839,9.002,18.139,14.878c2.839,3.147,4.612,6.83,5.51,10.921c1.037,4.729-0.262,7.407-4.607,9.472
			c-15.124,7.193-30.273,14.333-45.405,21.508c-1.607,0.762-3.252,1.491-4.732,2.459c-2.084,1.365-4.016,0.988-5.476-0.633
			c-1.486-1.65-2.784-3.585-3.704-5.605c-3.564-7.82-4.824-16.256-6.138-24.648c-2.734-17.457-3.625-35.074-4.411-52.698
			C538.72,291.441,538.805,290.965,538.874,290.037z"/>
		<path style="fill:#887F79;" d="M494.923,458.554c3.293-0.024,6.607-0.286,9.874,0.001c2.858,0.251,4.222,1.936,4.68,4.773
			c3.763,23.291,7.513,46.584,11.278,69.876c1.599,9.89,3.262,19.77,4.787,29.672c0.139,0.906-0.212,2.442-0.853,2.828
			c-7.326,4.422-14.753,8.678-22.153,12.978c-7.651-4.543-15.274-9.132-22.973-13.593c-1.714-0.993-2.366-2.067-2.026-4.067
			c1.856-10.916,3.607-21.848,5.396-32.775c3.028-18.504,6.021-37.014,9.113-55.507
			C492.843,467.984,493.957,463.281,494.923,458.554z"/>
		<path style="fill:#887F79;" d="M408.305,317.38c5.736-3.434,11.312-7.181,17.244-10.236c11.348-5.842,22.9-11.291,34.371-16.896
			c0.201-0.099,0.453-0.094,1.057-0.21c0,1.568,0.061,3.048-0.01,4.521c-0.961,19.881-1.92,39.78-6.01,59.323
			c-1.248,5.965-3.515,11.727-5.504,17.518c-0.398,1.16-1.656,2.025-2.518,3.027c-0.904-0.234-1.867-0.341-2.702-0.727
			c-2.496-1.15-4.926-2.443-7.409-3.623c-14.313-6.804-28.628-13.607-42.959-20.374c-2.923-1.381-4.211-3.615-4.021-6.793
			c0.291-4.874,2.061-9.251,5.411-12.673c3.887-3.97,8.252-7.47,12.363-11.224C408.014,318.652,408.083,317.932,408.305,317.38z"/>
		<path style="fill:#887F79;" d="M625.043,347.883c2.625,6.064,5.961,11.93,7.719,18.235c3.189,11.436,5.496,23.121,8.038,34.73
			c0.676,3.084,1.877,5.684,4.557,7.419c1.96,1.269,2.841,3.007,2.753,5.311c-0.459,12.209-0.784,24.425-1.398,36.627
			c-0.509,10.101-1.357,20.184-2.049,30.275c-0.033,0.483-0.166,1.046,0.021,1.444c2.407,5.134,0.58,10.373,0.199,15.497
			c-0.784,10.564-2.076,21.092-3.179,31.632c-0.122,1.17-0.365,2.328-1.009,3.448c0-36.298,0-72.596,0-109.63
			c-13.987,10.025-29.849,14.472-45.272,19.789c-15.457,5.329-31.124,10.204-48.44,10.396c0.952-2.589,1.483-4.617,2.46-6.401
			c0.383-0.699,1.731-0.989,2.699-1.23c11.85-2.959,23.771-5.653,35.553-8.86c11.952-3.254,23.736-7.108,34.746-12.927
			c2.776-1.467,5.386-3.279,7.956-5.098c4.521-3.2,6.287-7.836,6.544-13.2c0.48-10.006-2.331-19.373-5.566-28.65
			c-1.359-3.895-2.903-7.724-4.31-11.602c-0.353-0.973-0.589-2.007-0.735-3.034c-0.644-4.543-1.236-9.093-1.847-13.641
			C624.668,348.237,624.856,348.06,625.043,347.883z M642.152,446.543c0.204,0.024,0.408,0.048,0.613,0.073
			c2.579-6.645,1.51-13.27,0.039-19.893c-0.217,0.001-0.434,0.001-0.651,0.002C642.152,433.332,642.152,439.937,642.152,446.543z"/>
		<path style="fill:#E4DFDC;" d="M406.394,559.128c0.741-2.413,1.481-4.826,2.446-7.965c0.55,5.505,1.06,10.285,1.499,15.071
			c1.277,13.932,2.535,27.865,3.782,41.799c1.197,13.372,2.347,26.747,3.562,40.116c1.215,13.37,2.509,26.733,3.721,40.104
			c0.912,10.067,1.745,20.142,2.624,30.213c0.316,3.626,0.62,7.255,1.031,10.87c0.084,0.733,0.43,1.732,0.982,2.067
			c3.99,2.421,8.066,4.703,12.453,7.224c0-4.562,0.096-8.644-0.022-12.721c-0.172-5.902-0.546-11.799-0.747-17.701
			c-0.456-13.344-0.836-26.691-1.288-40.035c-0.571-16.821-1.193-33.64-1.751-50.461c-0.03-0.903,0.33-1.819,0.509-2.729
			c1.193,19.307,2.392,38.612,3.576,57.919c1.193,19.466,2.371,38.931,3.55,58.398c0.244,4.03,0.459,8.062,0.713,12.539
			c-0.953-0.423-1.657-0.682-2.311-1.034c-5.836-3.147-11.685-6.27-17.463-9.518c-0.758-0.426-1.549-1.496-1.622-2.33
			c-1.901-21.436-3.683-42.882-5.538-64.322c-1.521-17.572-3.121-35.136-4.662-52.707c-0.544-6.204-0.924-12.426-1.55-18.623
			c-1.023-10.127-2.208-20.237-3.271-30.36C406.414,563.017,406.462,561.066,406.394,559.128z"/>
		<path style="fill:#887F79;" d="M445.175,744.964c-1.596-26.702-3.17-53.065-4.744-79.427c0.099-0.024,0.197-0.047,0.296-0.07
			c0.176,0.529,0.409,1.046,0.518,1.588c1.013,5.054,3.262,9.557,5.63,14.115c3.759,7.236,7.027,14.736,10.258,22.23
			c0.763,1.77,0.65,3.956,0.762,5.961c0.551,9.852,0.992,19.71,1.594,29.558c0.133,2.184-0.479,3.185-2.725,3.562
			C452.971,743.118,449.231,744.077,445.175,744.964z"/>
		<path style="fill:#887F79;" d="M362.5,401.063c0.186,2.165,0.351,4.332,0.564,6.495c0.473,4.803,2.827,8.484,6.665,11.343
			c6.893,5.134,14.713,8.401,22.691,11.328c17.487,6.415,35.52,10.876,53.692,14.826c4.545,0.988,4.844,1.307,5.661,6.091
			c-0.801,0.039-1.624,0.22-2.398,0.096c-5.89-0.94-11.893-1.482-17.635-3.001c-24.233-6.413-48.049-14.024-70.104-26.287
			c-0.721-0.401-1.507-0.685-2.772-1.252c0.235,1.275,0.359,1.944,0.481,2.613c-0.045,10.652-0.104,21.304-0.133,31.956
			c-0.023,8.395-0.001,16.789-0.023,25.184c-0.002,0.787-0.178,1.573-0.273,2.359c-0.261-3.098-0.568-6.193-0.778-9.294
			c-0.59-8.736-1.14-17.475-1.706-26.213c-0.087-2.562-0.157-5.124-0.262-7.685c-0.195-4.715-0.411-9.429-0.618-14.144
			c-0.147-0.273-0.419-0.545-0.422-0.82c-0.046-4.45-0.136-8.902-0.018-13.35c0.027-1.039,0.493-2.49,1.261-3.013
			C359.124,406.426,360.936,403.877,362.5,401.063z"/>
		<path style="fill:#887F79;" d="M558.922,672.021c-1.443,24.209-2.886,48.41-4.35,72.97c-4.658-1.054-9.061-1.99-13.414-3.124
			c-0.453-0.118-0.879-1.416-0.85-2.148c0.289-7.436,0.995-14.87,0.96-22.301c-0.059-12.333,6.271-22.392,11.115-32.986
			C554.322,680.193,556.722,676.165,558.922,672.021z"/>
		<path style="fill:#E4DFDC;" d="M616.888,445.09c-12.259,5.536-26.476,9.363-32.627,8.878c14.865-5.367,29.97-10.821,44.815-16.181
			c0,4.946,0.002,10.407-0.001,15.869c-0.001,0.647-0.133,1.31-0.033,1.939c0.97,6.046-2.021,10.15-6.518,13.581
			c-3.927,2.998-8.161,5.4-13.234,7.319c0-2.022,0-3.681,0-5.34c0.001-4.692-0.095-9.386,0.069-14.073
			c0.043-1.233,0.627-2.653,1.417-3.615c2.15-2.619,4.543-5.041,6.84-7.541c0.59-0.17,1.181-0.34,1.772-0.51
			c-0.336-0.373-0.672-0.747-1.009-1.121C617.883,444.559,617.385,444.825,616.888,445.09z"/>
		<path style="fill:#E4DFDC;" d="M416.205,454.219c-12.484-0.829-23.54-4.798-34.725-9.098c2.33,2.584,4.565,5.264,7.027,7.716
			c1.503,1.496,2.047,3.06,2.004,5.153c-0.121,6.046-0.043,12.096-0.043,18.501c-5.82-2.222-10.723-5.154-15.181-9
			c-3.328-2.87-4.777-6.12-4.58-10.576c0.246-5.566-0.18-11.161-0.308-16.743c-0.022-0.953-0.003-1.908-0.003-2.469
			C385.531,443.159,400.598,448.591,416.205,454.219z"/>
		<path style="fill:#E4DFDC;" d="M362.5,401.063c-1.564,2.813-3.376,5.363-6.124,7.235c-0.767,0.523-1.233,1.973-1.261,3.013
			c-0.118,4.447-0.028,8.899,0.018,13.35c0.003,0.275,0.275,0.547,0.422,0.82c-0.48,4.732-1.168,9.455-1.359,14.199
			c-0.106,2.656,0.03,5.522,2.238,7.63c0.566,8.738,1.116,17.477,1.706,26.213c0.21,3.102,0.516,6.196,0.778,9.294
			c0.102,16.339,0.205,32.677,0.307,49.016c-0.273,0.016-0.547,0.032-0.821,0.048c-1.504-14.885-3.031-29.768-4.467-44.66
			c-0.117-1.21,0.396-2.478,0.592-3.722c0.173-1.101,0.504-2.219,0.436-3.309c-0.879-14.133-1.922-28.256-2.7-42.393
			c-0.439-7.992-0.452-16.007-0.696-24.011c-0.073-2.381,0.726-4.227,2.764-5.555c2.67-1.738,3.97-4.273,4.533-7.407
			c2.79-15.527,5.806-31.009,11.909-45.671c1.019-2.448,2.366-4.76,3.561-7.135c0.291,0.114,0.581,0.229,0.872,0.343
			c-0.68,3.141-1.361,6.282-2.041,9.423c-0.459,0.801-1.092,1.55-1.35,2.412c-1.616,5.401-3.224,10.807-4.676,16.255
			c-0.713,2.675-1.087,5.44-1.613,8.164C364.518,390.097,363.509,395.58,362.5,401.063z"/>
		<path style="fill:#E4DFDC;" d="M494.923,458.554c-0.967,4.727-2.081,9.43-2.876,14.185c-3.093,18.493-6.085,37.004-9.113,55.507
			c-1.789,10.927-3.541,21.859-5.396,32.775c-0.34,1.999,0.312,3.073,2.026,4.067c7.699,4.461,15.321,9.05,22.973,13.593
			c-1.485,1.739-2.914,1.821-4.967,0.556c-7.221-4.452-14.56-8.719-21.919-12.941c-1.53-0.879-1.873-1.799-1.596-3.483
			c3.039-18.42,5.996-36.853,8.982-55.281c2.353-14.519,4.71-29.036,7.078-43.553C490.712,460.318,491.705,459.227,494.923,458.554z
			"/>
		<path style="fill:#E4DFDC;" d="M501.307,255.797c-4.894,10.847-13.761,17.972-23.135,24.595c-2.704,1.91-5.638,3.496-8.317,5.436
			c-0.776,0.562-1.353,1.8-1.479,2.797c-0.779,6.173-1.664,12.349-2.032,18.553c-1.143,19.294-2.09,38.599-3.067,57.903
			c-0.213,4.199-0.488,8.419-0.281,12.607c0.206,4.159,0.976,8.294,6.161,9.324c-3.346,1.85-7.427,1.988-8.816-3.379
			c-0.481-1.86-0.956-3.818-0.883-5.71c0.7-18.116,1.338-36.238,2.37-54.336c0.63-11.059,1.954-22.078,2.884-33.122
			c0.174-2.07,1.062-3.267,2.866-4.316c8.007-4.661,15.387-10.178,21.832-16.87c3.503-3.639,6.562-7.574,8.216-12.463
			C498.372,254.606,499.624,254.34,501.307,255.797z"/>
		<path style="fill:#E4DFDC;" d="M444.99,534.858c0.275,0.676,0.756,1.341,0.795,2.03c1.049,18.321,2.03,36.646,3.075,54.967
			c0.342,6.007,0.424,5.943,6.358,7.573c10.603,2.913,21.191,5.88,31.76,8.915c0.97,0.279,1.753,1.211,2.624,1.841
			c-15.086-2.842-30.172-5.682-45.257-8.527c-1.799-0.339-3.592-0.707-6.104-1.203c1.034-0.401,1.347-0.546,1.674-0.647
			c4.843-1.491,4.86-1.49,4.879-6.449C444.864,573.857,444.925,554.358,444.99,534.858z"/>
		<path style="fill:#E4DFDC;" d="M485.023,420.28c-0.24-0.056-0.481-0.112-0.721-0.168c-18.55-20.084-39.716-36.809-63.964-49.51
			c-11.341-5.941-23.045-11.043-35.507-14.233c-0.665-0.17-1.625-0.77-1.726-1.306c-0.627-3.318-1.193-6.679,0.492-10.761
			c0.467,6.478,4.392,8.968,9.137,11.149c14.916,6.853,29.703,13.987,44.533,21.027c0.794,0.376,1.521,0.895,2.279,1.348
			c0.37,0.47,0.654,1.068,1.125,1.394c10.015,6.927,19.079,14.99,27.805,23.432c5.401,5.226,10.59,10.672,15.857,16.036
			c0.384,0.391,0.63,0.918,0.939,1.382C485.191,420.142,485.109,420.212,485.023,420.28z"/>
		<path style="fill:#E4DFDC;" d="M436.574,430.985c2.613,0.587,5.226,1.174,7.839,1.761c-1.127,1.954-3.034,1.599-4.694,1.341
			c-4.31-0.668-8.613-1.431-12.873-2.367c-15.361-3.376-29.493-9.774-43.142-17.449c-6.917-3.89-9.659-9.523-8.135-17.14
			c1.391-6.956,3.134-13.841,4.735-20.755c0.459-1.982,1.909-1.554,3.275-1.289c-1.171,4.859-2.61,9.674-3.433,14.593
			c-0.714,4.263-0.828,8.639-1.023,12.973c-0.135,3.005,1.63,5.17,3.827,6.964c7.436,6.07,16.173,9.758,24.953,13.269
			c6.212,2.484,12.584,4.585,18.953,6.651c2.437,0.791,5.057,1.03,7.604,1.468c0.374,0.064,0.8-0.167,1.202-0.262
			C435.965,430.824,436.269,430.905,436.574,430.985z"/>
		<path style="fill:#E4DFDC;" d="M500.475,296.845c0.185-0.35,0.369-0.701,0.901-1.712c0.276,3.615,0.604,6.607,0.718,9.607
			c0.425,11.233,0.795,22.47,1.159,33.705c0.522,16.087,1.012,32.174,1.535,48.261c0.273,8.407,0.584,16.813,0.895,25.218
			c0.027,0.719,0.185,1.433,0.284,2.151c-0.996,1.674-1.991,3.347-2.986,5.019c-0.215-0.063-0.43-0.126-0.644-0.189
			C501.717,378.217,501.096,337.532,500.475,296.845z"/>
		<path style="fill:#E4DFDC;" d="M479.956,316.574c0.297-0.934,0.594-1.867,1.055-3.315c0.067,1.221,0.128,1.978,0.148,2.735
			c0.42,15.852,0.821,31.705,1.257,47.557c0.244,8.89,0.424,17.786,0.887,26.667c0.158,3.024,0.924,6.055,1.747,8.988
			c0.39,1.388,1.407,2.707,2.421,3.793c3.3,3.534,6.73,6.948,10.11,10.407c-0.023,1.869-0.046,3.737-0.068,5.606
			c-0.223,0.054-0.445,0.108-0.668,0.162c-3.578-4.261-6.756-8.97-10.852-12.657c-4.044-3.641-5.575-7.936-6.148-12.946
			c-0.101-0.883-0.154-1.776-0.152-2.665C479.776,366.129,479.866,341.351,479.956,316.574z"/>
		<path style="fill:#E4DFDC;" d="M408.305,317.38c-0.221,0.553-0.29,1.272-0.687,1.633c-4.111,3.755-8.476,7.255-12.363,11.224
			c-3.35,3.421-5.12,7.799-5.411,12.673c-0.19,3.179,1.098,5.413,4.021,6.793c14.331,6.767,28.646,13.57,42.959,20.374
			c2.483,1.18,4.913,2.473,7.409,3.623c0.835,0.386,1.798,0.493,2.702,0.727c-1.219,1.994-2.867,2.409-4.956,1.413
			c-14.37-6.858-28.747-13.701-43.118-20.557c-2.553-1.219-5.132-2.393-7.624-3.727c-4.504-2.41-5.894-6.067-4.459-10.997
			c1.6-5.489,4.907-9.837,9.154-13.449C399.925,323.712,404.17,320.611,408.305,317.38z"/>
		<path style="fill:#E4DFDC;" d="M369.864,517.577c0.101,3.516-0.316,7.141,0.396,10.53c2.501,11.889,6.896,23.145,14.073,32.973
			c3.427,4.692,8.165,8.434,12.376,12.539c0.998,0.972,2.259,1.674,3.399,2.5c-0.116,1.414-0.233,2.827-0.362,4.401
			c-22.877-15.567-36.225-44.169-33.412-68.164C367.679,514.346,368.772,515.961,369.864,517.577z"/>
		<path style="fill:#887F79;" d="M561.929,618.768c0.166,5.722-0.476,10.699-2.508,15.479c-4.708,11.076-9.356,22.178-14.038,33.267
			c-0.08,0.19-0.296,0.322-0.803,0.856c0.162-2.787,0.281-5.146,0.441-7.503c0.285-4.192,0.578-8.384,0.911-12.571
			c0.056-0.704,0.2-1.464,0.533-2.072c4.818-8.785,9.673-17.55,14.528-26.315C561.137,619.65,561.371,619.442,561.929,618.768z"/>
		<path style="fill:#E4DFDC;" d="M359.346,423.317c-0.123-0.67-0.247-1.339-0.481-2.613c1.264,0.567,2.051,0.851,2.772,1.252
			c22.055,12.263,45.87,19.874,70.104,26.287c5.742,1.518,11.744,2.061,17.635,3.001c0.774,0.124,1.597-0.057,2.398-0.096
			c1.448,1.713,0.071,1.975-1.127,1.884c-4.189-0.316-8.416-0.506-12.539-1.241c-19.687-3.508-38.337-10.435-56.987-17.405
			C373.41,431.503,366.205,427.794,359.346,423.317z"/>
		<path style="fill:#887F79;" d="M438.146,616.395c5.002,9.066,10.008,18.129,14.993,27.204c0.264,0.481,0.451,1.058,0.49,1.604
			c0.456,6.452,0.878,12.907,0.902,19.515c-1.542-3.507-3.214-6.963-4.599-10.53c-3.949-10.173-7.873-20.357-11.585-30.616
			c-0.788-2.179-0.641-4.695-0.926-7.056C437.663,616.477,437.904,616.436,438.146,616.395z"/>
		<path style="fill:#E4DFDC;" d="M426.896,400.689c1.115,0.603,2.316,1.089,3.333,1.827c13.67,9.914,27.258,19.943,40.992,29.767
			c5.644,4.036,7.956,9.495,8.235,16.151c0.04,0.944,0.457,1.873,0.7,2.81c-0.236,0.319-0.418,0.709-0.72,0.942
			c-0.7,0.537-1.458,0.999-2.699,1.83c-0.345-1.353-0.868-2.422-0.848-3.48c0.13-7.046-2.461-12.609-8.149-16.956
			c-12.216-9.338-24.271-18.887-36.405-28.332c-0.611-0.476-1.346-0.792-2.024-1.182c0,0.001,0.05,0.047,0.05,0.047
			c-0.171-0.184-0.343-0.37-0.514-0.554c-0.64-0.966-1.28-1.931-1.92-2.897L426.896,400.689z"/>
		<path style="fill:#E4DFDC;" d="M390.952,526.046c-2.467-0.787-4.936-1.564-7.399-2.366c-0.949-0.31-1.879-0.677-2.819-1.018h0.001
			c-0.457-0.344-0.913-0.689-1.37-1.033c-10.868-8.718-16.46-20.001-16.5-33.976c-0.007-2.341-0.042-4.685,0.033-7.024
			c0.084-2.584,1.274-3.688,3.895-3.79c-1.342,14.436,0.808,27.991,11.064,39.016c3.298,3.545,7.626,6.133,11.492,9.147
			c0.5,0.39,1.052,0.713,1.579,1.068L390.952,526.046z"/>
		<path style="fill:#E4DFDC;" d="M362.876,430.58c1.845,2.122,3.396,3.843,4.856,5.637c0.306,0.376,0.458,1.056,0.374,1.544
			c-1.613,9.384-3.271,18.759-5.23,28.112C362.876,454.314,362.876,442.756,362.876,430.58z"/>
		<path style="fill:#E4DFDC;" d="M387.043,485.253c1.06,1.611,1.891,3.453,3.234,4.777c1.925,1.897,4.161,3.503,6.385,5.06
			c1.298,0.909,3.063,1.324,2.79,3.419c-0.279,2.132-1.936,2.527-3.677,2.764c0.513-2.301-0.33-3.576-2.513-4.735
			c-6.116-3.245-10.014-8.713-13.453-14.526c-0.482-0.815-0.89-1.674-1.084-2.81C382.081,480.411,384.551,482.849,387.043,485.253z"
			/>
		<path style="fill:#887F79;" d="M636.811,430.779c0,11.933,0,23.321,0,34.71c-0.087,0.013-0.175,0.025-0.262,0.038
			c-1.002-5.693-2.005-11.386-3.007-17.078c-0.532-3.028-0.934-6.086-1.641-9.073c-0.444-1.876-0.089-3.261,1.27-4.573
			C634.331,433.683,635.346,432.413,636.811,430.779z"/>
		<path style="fill:#E4DFDC;" d="M494.985,437.14c0.967-0.497,1.934-0.994,2.901-1.491c0.186,0.464,0.372,0.927,0.558,1.391
			c-1.126,4.096-2.236,8.196-3.387,12.284c-0.381,1.353-0.869,2.675-1.307,4.01c-1.18,0.44-2.361,0.879-3.158,1.176
			C492.042,448.777,493.513,442.959,494.985,437.14z"/>
		<path style="fill:#887F79;" d="M365.527,384.614c0.527-2.725,0.9-5.49,1.613-8.164c1.452-5.447,3.061-10.853,4.676-16.255
			c0.258-0.861,0.89-1.61,1.35-2.412c-0.218,2.604,0.009,5.344-0.741,7.784c-1.893,6.161-4.224,12.187-6.392,18.262
			C365.932,384.114,365.699,384.354,365.527,384.614z"/>
		<path style="fill:#E4DFDC;" d="M476.246,497.367c-3.514,2.655-7.051,5.28-10.536,7.973c-2.927,2.262-5.778,4.621-8.706,6.882
			c-0.335,0.258-0.947,0.156-1.431,0.22c6.672-5.553,13.342-11.105,20.239-16.845C476.026,496.466,476.136,496.916,476.246,497.367z
			"/>
		<path style="fill:#E4DFDC;" d="M344.573,438.951c-2.787-4.09,0.884-6.978,1.765-10.741
			C348.1,432.801,347.217,437.662,344.573,438.951z"/>
		<path style="fill:#887F79;" d="M654.894,439.137c-3.556-3.163-1.749-7.012-2.043-10.678
			C655.915,432.046,656.739,436.116,654.894,439.137z"/>
		<path style="fill:#E4DFDC;" d="M493.703,453.177c3.476-0.488,6.947-1.011,10.43-1.448c1.351-0.169,2.727-0.143,4.091-0.206
			c0.596,0.933,1.193,1.868,1.536,2.407C504.474,453.683,499.088,453.43,493.703,453.177z"/>
		<path style="fill:#E4DFDC;" d="M459.026,504.709c-1.173,0.311-2.347,0.622-3.52,0.933c2.587-2.298,5.173-4.596,7.759-6.893
			c0.276,0.043,0.552,0.087,0.828,0.131C462.403,500.823,460.714,502.766,459.026,504.709z"/>
		<path style="fill:#887F79;" d="M359.521,534.791c0.34,1.691,0.68,3.382,1.021,5.073c-0.296,0.054-0.593,0.109-0.889,0.163
			c-0.27-1.733-0.541-3.467-0.81-5.2C359.069,534.815,359.294,534.803,359.521,534.791z"/>
		<path style="fill:#887F79;" d="M624.482,348.414c-0.536-1.033-1.073-2.067-1.608-3.1c0.139-0.084,0.279-0.169,0.418-0.253
			c0.584,0.941,1.167,1.883,1.751,2.824C624.856,348.06,624.668,348.237,624.482,348.414z"/>
		<path style="fill:#887F79;" d="M374.929,347.223c0.633-0.824,1.265-1.647,1.899-2.472c0.078,0.088,0.159,0.174,0.242,0.256
			c-0.485,0.943-0.971,1.886-1.457,2.829C375.386,347.632,375.157,347.429,374.929,347.223z"/>
		<path style="fill:#887F79;" d="M616.888,445.09c0.497-0.265,0.994-0.531,1.491-0.796c0.337,0.374,0.673,0.748,1.009,1.121
			c-0.59,0.17-1.182,0.34-1.772,0.51C617.374,445.647,617.131,445.369,616.888,445.09z"/>
		<path style="fill:#887F79;" d="M464.092,498.88c-0.276-0.044-0.553-0.088-0.828-0.131c0.284-0.444,0.568-0.887,0.853-1.33
			c0.209,0.162,0.417,0.324,0.626,0.487C464.526,498.231,464.309,498.555,464.092,498.88z"/>
		<path style="fill:#887F79;" d="M379.366,521.628c0.457,0.344,0.913,0.689,1.37,1.033
			C380.279,522.317,379.823,521.972,379.366,521.628z"/>
		<path style="fill:#887F79;" d="M358.405,531.88c0.273-0.016,0.547-0.032,0.821-0.048c0.039,0.347,0.078,0.694,0.116,1.041
			c-0.25,0.001-0.5,0.004-0.75,0.005C358.529,532.546,358.467,532.212,358.405,531.88z"/>
		<path style="fill:#E4DFDC;" d="M358.592,532.878c0.25-0.001,0.5-0.004,0.75-0.005c0.06,0.639,0.119,1.279,0.179,1.919
			c-0.227,0.012-0.453,0.024-0.678,0.036C358.759,534.177,358.675,533.529,358.592,532.878z"/>
		<path style="fill:#887F79;" d="M496.846,419.174c0.223-0.054,0.445-0.108,0.668-0.162c-0.051,0.259-0.102,0.518-0.153,0.776
			C497.19,419.584,497.018,419.379,496.846,419.174z"/>
		<path style="fill:#E4DFDC;" d="M374.929,347.223c0.228,0.205,0.456,0.409,0.684,0.613c-0.261,0.179-0.523,0.358-0.784,0.537
			C374.863,347.99,374.896,347.607,374.929,347.223z"/>
		<path style="fill:#887F79;" d="M536.395,499.614c0.033-0.07,0.06-0.125,0.087-0.181c0.081,0.056,0.161,0.111,0.241,0.167
			c-0.053,0.056-0.106,0.153-0.161,0.155C536.507,499.756,536.449,499.662,536.395,499.614z"/>
		<path style="fill:#887F79;" d="M376.828,344.752c0.137-0.101,0.274-0.202,0.411-0.304c-0.058,0.186-0.115,0.372-0.17,0.559
			C376.986,344.926,376.906,344.84,376.828,344.752z"/>
		<path style="fill:#090808;" d="M557.688,523.208c29.813,0.856,53.35-11.276,71.557-34.536c1.898,1.037,1.361,2.437,0.737,3.907
			c-4.659,10.976-12.213,19.528-21.947,26.257c-9.701,6.707-20.376,11.202-31.846,13.799c-1.199,0.271-2.769,0.008-3.866-0.575
			c-4.989-2.645-9.87-5.494-14.79-8.27C557.586,523.596,557.637,523.403,557.688,523.208z"/>
		<path style="fill:#090808;" d="M442.149,523.834c-5.205,2.937-10.395,5.904-15.636,8.774c-0.637,0.349-1.609,0.396-2.338,0.22
			c-18.373-4.437-34.819-12.316-46.802-27.488c-3.167-4.009-5.262-8.867-7.814-13.355c-0.732-1.287-0.653-2.461,0.94-3.287
			c18.163,23.198,41.713,35.351,71.538,34.518C442.074,523.423,442.111,523.629,442.149,523.834z"/>
		<path style="fill:#090808;" d="M496.16,610.521c-0.279-0.021-0.556-0.042-0.836-0.063c0.005-0.072,0.01-0.144,0.014-0.216
			c0.279,0.015,0.558,0.03,0.837,0.045C496.17,610.365,496.165,610.443,496.16,610.521z"/>
		<path style="fill:#090808;" d="M451.143,515.303c0.015,0.012,0.03,0.023,0.043,0.034
			C451.184,515.335,451.143,515.303,451.143,515.303z"/>
		<polygon style="fill:#E4DFDC;" points="390.929,526.068 391.057,526.183 390.952,526.046 		"/>
		<path style="fill:#090808;" d="M567.434,418.403c-0.433,3.526-1.321,6.909-3.399,9.896c-0.364,0.524-0.792,1.172-1.333,1.367
			c-1.134,0.41-2.364,0.556-3.554,0.809c0.179-1.093,0.024-2.416,0.594-3.239c2.184-3.158,4.599-6.154,6.928-9.211
			C566.925,418.152,567.18,418.277,567.434,418.403z"/>
		<path style="fill:#090808;" d="M436.574,430.985c-0.304-0.08-0.609-0.161-0.914-0.241c-4.082-3.221-5.167-7.779-5.898-12.494
			c0.241-0.157,0.483-0.313,0.724-0.47c2.521,3.39,5.11,6.733,7.53,10.193C439.111,429.537,438.6,430.72,436.574,430.985z"/>
		<path style="fill:#E4DFDC;" d="M485.272,420.07c0.63,0.663,1.26,1.326,1.89,1.988l0.023-0.021
			c-0.719-0.587-1.439-1.173-2.16-1.758C485.109,420.212,485.191,420.142,485.272,420.07z"/>
		<polygon style="fill:#E4DFDC;" points="487.163,422.058 487.284,422.197 487.186,422.037 		"/>
		<path style="fill:#090808;" d="M428.847,403.556c0.171,0.185,0.343,0.37,0.514,0.554
			C429.19,403.926,429.018,403.74,428.847,403.556z"/>
		<path style="fill:#E4DFDC;" d="M426.927,400.659c-0.053-0.03-0.107-0.061-0.161-0.093c0.043,0.041,0.087,0.081,0.13,0.122
			L426.927,400.659z"/>
		<path style="fill:#090808;" d="M642.152,446.543c0-6.607,0-13.212,0-19.818c0.217-0.001,0.434-0.001,0.651-0.002
			c1.472,6.622,2.541,13.247-0.039,19.893C642.56,446.591,642.357,446.568,642.152,446.543z"/>
		<path style="fill:#090808;" d="M356.434,447.309c-2.209-2.108-2.344-4.975-2.238-7.63c0.19-4.744,0.879-9.467,1.359-14.199
			c0.207,4.715,0.423,9.429,0.618,14.144C356.277,442.185,356.348,444.747,356.434,447.309z"/>
	</g>
</g>
</svg>
